<svg xmlns="http://www.w3.org/2000/svg" xmlns:xlink="http://www.w3.org/1999/xlink" width="750" zoomAndPan="magnify" viewBox="0 0 562.5 187.499995" height="250" preserveAspectRatio="xMidYMid meet" version="1.0"><defs><g/></defs><g fill="#000000" fill-opacity="1"><g transform="translate(28.72763, 86.677908)"><g><path d="M 27.714844 -51.792969 C 28.644531 -54.890625 29.109375 -57.058594 29.265625 -58.375 C 29.34375 -59.613281 29.03125 -60.234375 28.335938 -60.234375 L 28.027344 -60.234375 C 27.40625 -60.078125 26.011719 -57.988281 23.84375 -53.960938 C 21.679688 -49.9375 19.355469 -45.058594 16.878906 -39.40625 C 15.484375 -36.308594 14.089844 -33.214844 12.773438 -29.960938 C 11.382812 -26.710938 10.140625 -23.535156 8.980469 -20.4375 C 8.824219 -19.976562 8.363281 -19.433594 7.585938 -18.8125 C 6.8125 -18.117188 5.960938 -17.574219 5.109375 -17.109375 C 4.179688 -16.566406 3.25 -16.027344 2.324219 -15.40625 C 1.316406 -14.710938 0.621094 -14.167969 0.15625 -13.78125 C -0.621094 -13.007812 -1.160156 -12.464844 -1.546875 -12.15625 C 0.230469 -12.386719 1.625 -12.542969 2.554688 -12.695312 C 4.335938 -12.929688 5.652344 -13.085938 6.582031 -13.238281 C 6.425781 -12.234375 6.269531 -11.457031 6.269531 -10.992188 C 6.117188 -10.375 5.960938 -9.367188 5.730469 -8.050781 C 5.417969 -6.660156 5.1875 -5.417969 5.03125 -4.179688 C 4.722656 -2.941406 4.566406 -1.546875 4.414062 -0.078125 C 4.257812 1.472656 4.179688 2.632812 4.179688 3.484375 C 4.179688 4.878906 4.257812 5.652344 4.414062 5.804688 C 4.492188 6.117188 4.722656 5.960938 5.1875 5.496094 C 5.574219 5.109375 6.425781 3.484375 7.664062 0.542969 C 8.902344 -2.324219 11.070312 -7.511719 14.167969 -15.019531 C 14.324219 -15.484375 14.863281 -16.027344 15.640625 -16.722656 C 16.414062 -17.417969 17.417969 -18.117188 18.503906 -18.890625 C 20.128906 -19.976562 21.832031 -20.980469 23.535156 -21.910156 C 25.160156 -22.839844 26.246094 -23.226562 26.789062 -23.070312 C 27.40625 -22.761719 28.257812 -21.601562 29.34375 -19.585938 C 30.425781 -17.417969 31.820312 -14.167969 33.523438 -9.753906 C 35.226562 -5.03125 36.773438 -1.394531 38.167969 1.082031 C 39.40625 3.5625 40.878906 5.652344 42.503906 7.199219 C 43.511719 8.285156 44.207031 8.824219 44.671875 8.824219 C 44.828125 8.824219 44.902344 8.824219 44.980469 8.671875 C 45.292969 8.207031 44.980469 6.96875 44.207031 4.800781 C 43.820312 4.027344 43.277344 2.632812 42.660156 0.542969 C 41.882812 -1.472656 41.265625 -3.5625 40.644531 -5.730469 C 39.253906 -10.066406 38.015625 -13.472656 36.929688 -16.027344 C 35.847656 -18.503906 34.53125 -20.75 33.058594 -22.839844 C 32.4375 -23.613281 31.976562 -24.308594 31.664062 -25.007812 C 31.199219 -25.625 31.046875 -26.089844 31.046875 -26.246094 C 31.046875 -26.402344 31.585938 -26.941406 32.75 -27.871094 C 33.910156 -28.800781 35.304688 -29.882812 36.929688 -31.125 C 44.441406 -36.699219 49.78125 -41.808594 53.035156 -46.53125 C 54.890625 -49.238281 55.820312 -51.5625 55.820312 -53.421875 C 55.820312 -54.738281 55.277344 -55.820312 54.273438 -56.671875 C 52.570312 -58.144531 49.78125 -58.296875 45.988281 -57.136719 C 42.117188 -55.898438 37.703125 -53.574219 32.75 -50.015625 C 31.046875 -48.773438 29.652344 -47.847656 28.414062 -47.070312 C 27.175781 -46.296875 26.476562 -45.910156 26.402344 -46.066406 C 26.246094 -46.066406 26.324219 -46.683594 26.632812 -47.847656 C 26.863281 -48.929688 27.253906 -50.246094 27.714844 -51.792969 Z M 34.605469 -47.070312 C 37.550781 -49.085938 40.335938 -50.789062 43.046875 -52.027344 C 45.679688 -53.265625 47.847656 -53.960938 49.394531 -54.117188 L 49.78125 -54.117188 C 50.246094 -54.117188 50.710938 -54.039062 51.097656 -53.886719 C 51.40625 -53.652344 51.640625 -53.265625 51.71875 -52.800781 C 51.71875 -51.332031 49.859375 -48.851562 46.21875 -45.292969 C 42.503906 -41.730469 37.703125 -37.78125 31.742188 -33.445312 C 30.117188 -32.207031 28.644531 -31.125 27.328125 -30.347656 C 26.089844 -29.496094 25.316406 -29.109375 25.007812 -29.109375 L 24.929688 -29.109375 C 22.992188 -29.574219 21.679688 -29.730469 20.902344 -29.421875 C 20.128906 -29.109375 19.664062 -29.109375 19.664062 -29.574219 L 19.664062 -29.652344 C 19.664062 -30.039062 19.820312 -30.660156 20.207031 -31.511719 C 20.59375 -32.285156 20.902344 -32.980469 21.136719 -33.523438 C 21.988281 -35.382812 23.613281 -37.472656 25.9375 -39.871094 C 28.257812 -42.195312 31.125 -44.59375 34.605469 -47.070312 Z M 34.605469 -47.070312 "/></g></g></g><g fill="#000000" fill-opacity="1"><g transform="translate(77.887201, 86.677908)"><g><path d="M 1.316406 -13.238281 C 2.476562 -12.15625 3.40625 -11.613281 4.101562 -11.457031 C 4.414062 -11.382812 4.878906 -11.382812 5.652344 -11.382812 C 6.582031 -11.382812 7.898438 -11.382812 9.601562 -11.535156 C 11.457031 -11.613281 13.859375 -12 16.957031 -12.695312 C 20.050781 -13.316406 23.226562 -14.167969 26.554688 -15.097656 C 29.730469 -15.949219 32.828125 -16.878906 35.921875 -17.882812 C 38.867188 -18.8125 41.34375 -19.742188 43.199219 -20.59375 C 44.128906 -20.980469 44.902344 -21.367188 45.523438 -21.753906 C 46.144531 -22.066406 46.453125 -22.375 46.453125 -22.605469 C 46.453125 -23.070312 44.828125 -23.148438 41.574219 -22.683594 C 38.324219 -22.21875 32.671875 -21.136719 24.699219 -19.585938 C 20.828125 -18.8125 17.34375 -18.195312 14.089844 -17.652344 C 10.761719 -17.109375 8.75 -16.878906 7.972656 -16.878906 C 5.652344 -16.878906 4.335938 -17.34375 3.949219 -18.269531 C 3.484375 -19.199219 3.714844 -21.445312 4.492188 -25.007812 C 4.800781 -26.710938 5.109375 -28.179688 5.417969 -29.421875 C 5.652344 -30.660156 5.804688 -31.277344 5.804688 -31.355469 C 5.804688 -31.433594 5.730469 -31.511719 5.574219 -31.664062 C 5.417969 -31.742188 5.1875 -31.820312 5.03125 -31.976562 L 4.878906 -31.976562 C 4.414062 -31.898438 3.871094 -31.277344 3.097656 -30.039062 C 2.246094 -28.566406 1.472656 -26.941406 0.695312 -25.160156 C 0.230469 -23.921875 -0.15625 -22.761719 -0.464844 -21.601562 C -0.851562 -20.4375 -1.007812 -19.511719 -1.007812 -18.734375 L -1.007812 -18.269531 C -1.007812 -17.03125 -0.929688 -16.105469 -0.695312 -15.5625 C -0.464844 -14.941406 0.230469 -14.167969 1.316406 -13.238281 Z M 6.347656 -36.699219 C 6.503906 -36.386719 6.660156 -36.078125 6.96875 -35.921875 C 7.199219 -35.691406 7.433594 -35.613281 7.585938 -35.613281 C 8.050781 -35.613281 8.824219 -36.308594 10.066406 -37.859375 C 11.226562 -39.40625 11.921875 -40.644531 12.15625 -41.574219 C 12.234375 -41.882812 12.308594 -42.195312 12.308594 -42.503906 C 12.308594 -43.511719 11.84375 -44.285156 10.917969 -44.902344 C 10.375 -45.214844 9.910156 -45.367188 9.523438 -45.367188 C 8.824219 -45.367188 8.207031 -44.980469 7.742188 -44.363281 C 7.121094 -43.664062 6.660156 -42.347656 6.347656 -40.492188 C 6.117188 -39.5625 6.039062 -38.789062 6.039062 -38.167969 C 6.039062 -37.550781 6.117188 -37.007812 6.347656 -36.699219 Z M 6.347656 -36.699219 "/></g></g></g><g fill="#000000" fill-opacity="1"><g transform="translate(122.324357, 86.677908)"><g><path d="M 1.703125 -5.730469 C 2.789062 -5.1875 4.492188 -4.953125 6.734375 -4.953125 C 7.664062 -4.953125 8.671875 -4.953125 9.753906 -5.109375 C 13.546875 -5.417969 17.1875 -6.117188 20.75 -7.199219 C 22.839844 -7.898438 25.238281 -8.75 27.871094 -9.675781 C 30.425781 -10.605469 33.058594 -11.691406 35.769531 -12.773438 C 38.867188 -14.089844 41.882812 -15.40625 44.828125 -16.722656 C 47.613281 -17.960938 49.9375 -19.121094 51.71875 -20.050781 C 52.644531 -20.515625 53.34375 -20.980469 53.960938 -21.367188 C 54.425781 -21.679688 54.738281 -21.988281 54.738281 -22.140625 C 54.738281 -23.148438 52.183594 -23.070312 47.148438 -21.988281 C 42.039062 -20.828125 35.070312 -18.8125 26.402344 -15.871094 C 19.433594 -13.546875 14.324219 -12 11.070312 -11.382812 C 7.742188 -10.683594 5.417969 -10.683594 4.101562 -11.304688 C 2.863281 -11.84375 2.246094 -12.773438 2.246094 -14.167969 C 2.167969 -15.5625 2.710938 -17.265625 3.871094 -19.433594 C 5.496094 -22.375 7.277344 -24.464844 9.136719 -25.550781 C 10.992188 -26.632812 12 -26.246094 12.308594 -24.386719 C 12.464844 -23.304688 12.851562 -22.839844 13.546875 -22.839844 C 14.167969 -22.839844 14.632812 -23.457031 14.941406 -24.542969 C 15.25 -25.9375 15.25 -27.097656 14.789062 -28.179688 C 14.324219 -29.1875 13.546875 -29.960938 12.464844 -30.425781 C 11.691406 -30.734375 10.992188 -30.890625 10.527344 -30.890625 L 10.140625 -30.890625 C 9.523438 -30.734375 8.515625 -30.347656 7.046875 -29.652344 C 5.960938 -29.03125 5.03125 -28.335938 4.101562 -27.5625 C 3.097656 -26.632812 2.167969 -25.703125 1.316406 -24.621094 C -0.230469 -22.605469 -1.472656 -20.4375 -2.324219 -18.117188 C -3.019531 -16.335938 -3.328125 -14.710938 -3.328125 -13.316406 C -3.328125 -12.851562 -3.328125 -12.386719 -3.25 -11.921875 C -3.019531 -10.453125 -2.476562 -9.214844 -1.703125 -8.285156 C -0.929688 -7.199219 0.230469 -6.347656 1.703125 -5.730469 Z M 1.703125 -5.730469 "/></g></g></g><g fill="#000000" fill-opacity="1"><g transform="translate(174.812844, 86.677908)"><g><path d="M 36.078125 -66.582031 C 35.691406 -67.277344 35.226562 -67.820312 34.683594 -68.207031 C 34.066406 -68.519531 33.367188 -68.75 32.59375 -68.75 L 32.515625 -68.75 C 31.199219 -68.75 29.652344 -68.363281 27.949219 -67.433594 C 26.167969 -66.503906 24.308594 -65.109375 22.375 -63.332031 C 19.664062 -60.851562 16.722656 -56.980469 13.472656 -51.640625 C 10.21875 -46.21875 7.121094 -40.492188 4.335938 -34.296875 C 2.789062 -30.890625 1.472656 -27.5625 0.230469 -24.308594 C -1.007812 -20.902344 -2.089844 -17.730469 -2.863281 -14.789062 C -3.175781 -13.703125 -3.40625 -12.621094 -3.640625 -11.535156 C -3.949219 -10.375 -4.179688 -9.214844 -4.335938 -8.128906 C -4.800781 -6.039062 -5.109375 -4.179688 -5.265625 -2.476562 C -5.34375 -1.546875 -5.34375 -0.929688 -5.34375 -0.464844 C -5.34375 0 -5.34375 0.308594 -5.265625 0.464844 C -5.109375 0.695312 -4.953125 0.773438 -4.800781 0.773438 C -4.492188 0.773438 -4.179688 0.542969 -3.792969 0 C -3.175781 -0.773438 -2.398438 -2.246094 -1.546875 -4.335938 C -1.082031 -5.417969 -0.621094 -6.503906 -0.15625 -7.433594 C 0.308594 -8.363281 0.621094 -8.980469 0.929688 -9.289062 C 1.160156 -9.601562 2.246094 -9.832031 4.179688 -9.988281 C 6.039062 -10.140625 9.136719 -10.296875 13.472656 -10.375 C 15.871094 -10.375 18.117188 -10.453125 20.128906 -10.605469 C 22.140625 -10.683594 24 -10.839844 25.78125 -11.070312 C 28.878906 -11.382812 31.742188 -11.921875 34.296875 -12.695312 C 36.773438 -13.394531 39.253906 -14.398438 41.882812 -15.640625 C 42.738281 -16.027344 43.664062 -16.492188 44.59375 -17.03125 C 45.523438 -17.574219 46.453125 -18.117188 47.382812 -18.734375 C 49.085938 -19.820312 50.476562 -20.902344 51.640625 -21.910156 C 52.570312 -22.683594 53.109375 -23.226562 53.109375 -23.535156 C 53.109375 -23.613281 53.035156 -23.691406 53.035156 -23.691406 C 52.957031 -23.769531 52.414062 -23.613281 51.484375 -23.226562 C 50.402344 -22.839844 49.238281 -22.375 48 -21.832031 C 43.898438 -19.976562 39.640625 -18.503906 35.148438 -17.574219 C 30.660156 -16.644531 25.625 -16.027344 19.976562 -15.871094 C 15.484375 -15.640625 12.078125 -15.484375 9.910156 -15.484375 C 12.542969 -18.039062 14.632812 -19.976562 16.027344 -21.367188 C 18.96875 -24.234375 20.828125 -26.324219 21.601562 -27.640625 C 22.21875 -28.878906 22.066406 -29.960938 21.058594 -30.8125 C 20.4375 -31.355469 19.199219 -31.277344 17.496094 -30.582031 C 15.714844 -29.808594 13.625 -28.566406 11.226562 -26.710938 C 10.140625 -25.9375 9.289062 -25.394531 8.515625 -24.929688 C 7.742188 -24.464844 7.277344 -24.308594 7.277344 -24.464844 C 7.121094 -24.621094 7.433594 -25.550781 8.050781 -27.253906 C 8.671875 -28.957031 9.445312 -30.890625 10.375 -33.136719 L 13.859375 -41.265625 C 15.792969 -42.195312 17.265625 -42.96875 18.269531 -43.433594 C 20.128906 -44.363281 21.910156 -45.445312 23.691406 -46.761719 C 25.394531 -48.078125 27.019531 -49.472656 28.566406 -51.019531 C 31.355469 -53.808594 33.445312 -56.59375 34.996094 -59.535156 C 36.464844 -62.480469 36.851562 -64.800781 36.078125 -66.582031 Z M 22.761719 -57.292969 C 24.621094 -60 26.476562 -62.167969 28.335938 -63.71875 C 30.117188 -65.265625 31.585938 -66.039062 32.671875 -66.195312 L 32.828125 -66.195312 C 33.523438 -66.195312 33.988281 -65.808594 34.144531 -65.035156 C 34.144531 -64.878906 34.21875 -64.722656 34.21875 -64.570312 C 34.21875 -63.71875 33.832031 -62.480469 33.136719 -60.851562 C 32.128906 -58.609375 30.734375 -56.441406 28.957031 -54.425781 C 27.097656 -52.335938 24.929688 -50.402344 22.453125 -48.621094 C 20.4375 -47.148438 18.890625 -46.21875 17.960938 -45.753906 C 17.496094 -45.523438 17.109375 -45.445312 16.878906 -45.445312 C 16.566406 -45.445312 16.492188 -45.523438 16.492188 -45.832031 C 16.492188 -46.066406 16.800781 -46.917969 17.574219 -48.3125 C 18.195312 -49.625 19.046875 -51.097656 19.976562 -52.644531 C 20.4375 -53.496094 20.902344 -54.347656 21.445312 -55.125 C 21.910156 -55.898438 22.296875 -56.671875 22.761719 -57.292969 Z M 11.457031 -23.613281 L 13.472656 -25.007812 C 14.089844 -25.472656 14.632812 -25.78125 15.175781 -25.9375 L 15.40625 -25.9375 C 15.40625 -25.9375 15.484375 -25.859375 15.5625 -25.859375 L 15.5625 -25.78125 C 15.5625 -25.625 15.25 -25.160156 14.789062 -24.464844 C 14.167969 -23.691406 13.546875 -22.992188 12.773438 -22.453125 C 11.691406 -21.523438 10.375 -20.515625 8.671875 -19.277344 C 6.96875 -18.039062 5.574219 -17.03125 4.492188 -16.335938 C 4.644531 -16.878906 5.496094 -17.882812 6.890625 -19.433594 C 8.285156 -20.980469 9.832031 -22.375 11.457031 -23.613281 Z M 11.457031 -23.613281 "/></g></g></g><g fill="#000000" fill-opacity="1"><g transform="translate(225.288499, 86.677908)"><g/></g></g><g fill="#000000" fill-opacity="1"><g transform="translate(246.655493, 86.677908)"><g><path d="M 33.523438 -59.769531 C 32.828125 -60.777344 32.050781 -61.550781 31.199219 -62.015625 C 30.273438 -62.480469 29.265625 -62.789062 28.105469 -62.789062 L 27.019531 -62.789062 C 25.472656 -62.632812 24 -62.167969 22.605469 -61.550781 C 21.136719 -60.851562 19.742188 -59.847656 18.347656 -58.53125 C 14.476562 -55.046875 12.234375 -50.941406 11.535156 -46.144531 C 10.839844 -41.265625 11.691406 -36.234375 14.167969 -31.046875 C 14.941406 -29.496094 15.484375 -28.335938 15.871094 -27.5625 C 14.789062 -25.859375 13.9375 -24.621094 13.394531 -23.769531 C 11.691406 -21.136719 10.21875 -18.8125 8.980469 -16.878906 C 7.742188 -14.863281 6.660156 -13.085938 5.804688 -11.613281 C 4.101562 -8.824219 3.019531 -6.660156 2.476562 -5.265625 C 1.859375 -3.714844 1.472656 -2.398438 1.394531 -1.238281 C 1.316406 -0.695312 1.316406 -0.230469 1.316406 0.078125 C 1.316406 0.464844 1.316406 0.773438 1.394531 1.007812 C 1.472656 1.472656 1.703125 1.859375 2.167969 2.246094 C 2.789062 2.863281 3.484375 3.175781 4.414062 3.175781 L 4.800781 3.175781 C 5.804688 3.097656 7.199219 2.554688 8.980469 1.625 C 10.066406 1.082031 11.070312 0.464844 12.15625 -0.230469 C 13.160156 -0.851562 14.476562 -1.859375 16.179688 -3.175781 C 17.109375 -3.871094 18.117188 -4.722656 19.277344 -5.652344 C 20.4375 -6.582031 21.753906 -7.664062 23.304688 -8.902344 C 24.851562 -10.140625 26.324219 -11.304688 27.5625 -12.234375 C 28.800781 -13.160156 29.496094 -13.625 29.652344 -13.625 C 29.808594 -13.625 30.195312 -13.394531 30.890625 -13.007812 C 31.585938 -12.542969 32.363281 -12.078125 33.136719 -11.457031 C 34.761719 -10.21875 36.078125 -9.523438 37.160156 -9.367188 C 38.246094 -9.058594 39.019531 -9.367188 39.640625 -10.140625 C 40.257812 -10.992188 40.335938 -11.921875 40.027344 -12.851562 C 39.71875 -13.78125 38.867188 -14.710938 37.550781 -15.714844 C 36.851562 -16.179688 36.234375 -16.722656 35.769531 -17.1875 C 35.304688 -17.652344 35.070312 -17.960938 35.070312 -18.117188 C 35.070312 -18.269531 35.226562 -18.503906 35.613281 -18.96875 C 36 -19.355469 36.464844 -19.742188 37.007812 -20.207031 C 37.9375 -20.980469 38.941406 -21.910156 40.027344 -22.839844 C 41.03125 -23.769531 42.039062 -24.699219 42.96875 -25.625 C 44.671875 -27.328125 46.144531 -28.957031 47.382812 -30.503906 C 48.542969 -32.050781 49.164062 -33.058594 49.164062 -33.679688 C 49.164062 -34.605469 48.234375 -34.453125 46.453125 -33.367188 C 44.59375 -32.128906 41.421875 -29.574219 36.851562 -25.550781 C 35.457031 -24.308594 34.144531 -23.226562 33.058594 -22.453125 C 31.898438 -21.523438 31.199219 -21.136719 31.046875 -21.136719 C 30.734375 -21.136719 30.117188 -21.523438 29.1875 -22.453125 C 28.105469 -23.304688 27.097656 -24.234375 26.089844 -25.316406 C 25.160156 -26.089844 24.386719 -26.863281 23.769531 -27.640625 C 23.070312 -28.414062 22.683594 -28.957031 22.605469 -29.265625 C 22.453125 -29.496094 22.683594 -30.117188 23.148438 -31.046875 C 23.535156 -31.898438 24.234375 -33.058594 25.238281 -34.605469 C 27.097656 -37.550781 28.800781 -40.414062 30.347656 -43.355469 C 31.898438 -46.296875 32.902344 -48.542969 33.445312 -50.246094 C 33.988281 -51.949219 34.296875 -53.808594 34.296875 -55.742188 C 34.296875 -57.601562 34.066406 -58.917969 33.523438 -59.769531 Z M 28.257812 -58.683594 L 28.566406 -58.683594 C 28.957031 -58.683594 29.34375 -58.609375 29.652344 -58.453125 C 29.960938 -58.21875 30.273438 -57.988281 30.425781 -57.679688 C 30.660156 -57.214844 30.8125 -56.59375 30.8125 -55.898438 C 30.8125 -54.503906 30.347656 -52.722656 29.496094 -50.554688 C 28.179688 -47.070312 26.089844 -43.125 23.226562 -38.632812 C 22.296875 -37.316406 21.523438 -36.15625 20.902344 -35.226562 C 20.285156 -34.296875 19.898438 -33.832031 19.820312 -33.832031 C 19.511719 -33.832031 19.199219 -34.296875 18.8125 -35.382812 C 18.347656 -36.464844 18.039062 -37.625 17.730469 -38.941406 C 17.574219 -39.640625 17.417969 -40.335938 17.417969 -41.109375 C 17.265625 -41.808594 17.265625 -42.425781 17.265625 -43.046875 C 17.265625 -44.671875 17.574219 -46.53125 18.269531 -48.621094 C 18.890625 -50.710938 19.742188 -52.414062 20.671875 -53.652344 C 21.753906 -55.046875 22.992188 -56.285156 24.464844 -57.214844 C 25.859375 -58.066406 27.175781 -58.53125 28.257812 -58.683594 Z M 18.039062 -23.304688 L 18.269531 -23.535156 C 18.347656 -23.535156 18.425781 -23.613281 18.582031 -23.613281 C 18.8125 -23.613281 19.199219 -23.382812 19.742188 -22.992188 C 20.207031 -22.53125 20.980469 -21.753906 22.21875 -20.59375 C 23.148438 -19.664062 24 -18.8125 24.699219 -18.039062 C 25.316406 -17.265625 25.703125 -16.800781 25.703125 -16.644531 C 25.703125 -16.414062 24.773438 -15.5625 22.917969 -14.011719 C 21.058594 -12.386719 18.96875 -10.683594 16.800781 -8.902344 C 15.328125 -7.664062 13.9375 -6.582031 12.542969 -5.574219 C 11.148438 -4.492188 10.066406 -3.714844 9.289062 -3.175781 C 7.972656 -2.246094 7.046875 -1.703125 6.425781 -1.546875 C 6.195312 -1.472656 6.039062 -1.472656 5.960938 -1.472656 C 5.652344 -1.472656 5.496094 -1.625 5.496094 -1.933594 C 5.496094 -2.324219 6.117188 -3.714844 7.511719 -6.195312 C 8.824219 -8.59375 10.296875 -11.148438 11.921875 -13.859375 C 13.160156 -16.027344 14.398438 -18.039062 15.640625 -19.898438 C 16.722656 -21.679688 17.574219 -22.839844 18.039062 -23.304688 Z M 18.039062 -23.304688 "/></g></g></g><g fill="#000000" fill-opacity="1"><g transform="translate(297.440814, 86.677908)"><g><path d="M 43.046875 8.050781 C 42.890625 9.832031 42.8125 11.148438 42.890625 11.921875 C 42.890625 12.695312 43.046875 13.085938 43.355469 13.085938 C 43.898438 13.085938 44.59375 12.234375 45.523438 10.453125 C 46.375 8.671875 48 4.953125 50.324219 -0.773438 C 52.183594 -5.417969 53.886719 -9.675781 55.589844 -13.703125 C 57.214844 -17.574219 58.996094 -21.679688 60.851562 -25.9375 C 61.859375 -28.105469 62.941406 -30.425781 64.105469 -32.902344 C 65.1875 -35.382812 66.351562 -37.9375 67.664062 -40.722656 C 69.058594 -43.742188 70.296875 -46.453125 71.382812 -48.773438 C 72.464844 -51.097656 73.316406 -53.109375 74.09375 -54.8125 C 75.40625 -58.066406 76.257812 -60.464844 76.570312 -62.015625 C 76.722656 -62.710938 76.800781 -63.332031 76.800781 -63.949219 C 76.800781 -64.492188 76.722656 -64.957031 76.570312 -65.34375 C 76.027344 -66.273438 75.484375 -66.738281 74.867188 -66.738281 C 74.246094 -66.738281 73.085938 -66.351562 71.304688 -65.421875 C 69.136719 -64.335938 66.117188 -61.9375 62.246094 -58.375 C 58.21875 -54.738281 52.492188 -49.007812 44.902344 -41.1875 C 40.414062 -36.621094 37.007812 -33.214844 34.605469 -31.046875 C 32.128906 -28.722656 30.8125 -27.714844 30.582031 -28.027344 C 30.347656 -28.257812 30.273438 -28.878906 30.347656 -29.960938 C 30.347656 -31.046875 30.582031 -32.4375 30.890625 -34.144531 C 31.742188 -38.710938 32.285156 -42.660156 32.515625 -45.988281 C 32.671875 -49.238281 32.4375 -51.175781 31.976562 -51.871094 C 31.199219 -52.644531 30.273438 -53.035156 29.109375 -52.957031 C 27.949219 -52.800781 26.941406 -52.257812 26.011719 -51.332031 C 25.238281 -50.402344 24.234375 -49.164062 23.148438 -47.460938 C 21.988281 -45.753906 20.75 -43.742188 19.355469 -41.421875 C 16.878906 -37.085938 14.089844 -31.898438 11.148438 -25.9375 C 8.050781 -19.898438 5.1875 -13.78125 2.398438 -7.433594 C 0.230469 -2.632812 -1.007812 0.621094 -1.472656 2.246094 C -1.703125 2.863281 -1.78125 3.40625 -1.78125 3.792969 C -1.78125 4.414062 -1.625 4.644531 -1.160156 4.644531 C -1.007812 4.644531 0 3.019531 1.859375 -0.386719 C 3.714844 -3.714844 5.882812 -7.742188 8.285156 -12.464844 C 12.851562 -21.367188 16.722656 -28.644531 19.976562 -34.296875 C 23.148438 -39.949219 25.085938 -42.96875 25.859375 -43.433594 C 26.324219 -43.742188 26.476562 -43.199219 26.402344 -41.882812 C 26.324219 -40.492188 25.859375 -37.160156 25.007812 -31.742188 C 24.386719 -28.105469 24.386719 -25.394531 24.851562 -23.535156 C 25.238281 -21.679688 26.167969 -20.59375 27.714844 -20.285156 C 28.957031 -19.898438 30.425781 -20.128906 32.128906 -21.058594 C 33.679688 -21.910156 36.15625 -23.921875 39.40625 -27.175781 C 41.109375 -28.800781 43.125 -30.890625 45.445312 -33.367188 C 47.769531 -35.847656 50.554688 -38.789062 53.652344 -42.273438 C 56.128906 -44.902344 58.21875 -47.148438 60 -49.164062 C 61.78125 -51.019531 63.332031 -52.644531 64.570312 -54.039062 C 66.890625 -56.515625 68.441406 -58.066406 69.371094 -58.839844 C 70.222656 -59.535156 70.761719 -59.847656 70.917969 -59.691406 C 70.996094 -59.535156 70.296875 -58.066406 68.90625 -55.125 C 67.433594 -52.183594 65.652344 -48.773438 63.5625 -44.75 C 57.058594 -32.59375 52.183594 -22.375 48.929688 -14.011719 C 45.679688 -5.652344 43.742188 1.703125 43.046875 8.050781 Z M 43.046875 8.050781 "/></g></g></g><g fill="#000000" fill-opacity="1"><g transform="translate(365.644881, 86.677908)"><g><path d="M 9.214844 -27.949219 C 8.285156 -28.644531 7.433594 -29.03125 6.660156 -29.03125 L 6.503906 -29.03125 C 5.730469 -29.03125 4.953125 -28.800781 4.257812 -28.414062 C 2.863281 -27.640625 1.625 -26.324219 0.621094 -24.464844 C -0.464844 -22.605469 -1.238281 -21.058594 -1.703125 -19.664062 C -2.089844 -18.582031 -2.246094 -17.417969 -2.246094 -16.335938 C -2.246094 -15.640625 -2.246094 -15.019531 -2.089844 -14.398438 C -1.78125 -12.542969 -1.160156 -11.304688 -0.15625 -10.527344 C 0.621094 -9.910156 1.472656 -9.601562 2.476562 -9.601562 C 2.863281 -9.601562 3.328125 -9.675781 3.792969 -9.832031 C 5.265625 -10.140625 6.734375 -11.070312 8.207031 -12.464844 C 8.671875 -12.929688 9.214844 -13.472656 9.675781 -14.246094 C 10.140625 -14.863281 10.527344 -15.40625 10.839844 -15.792969 C 11.304688 -15.484375 12.695312 -15.40625 14.863281 -15.484375 C 17.03125 -15.5625 19.355469 -15.714844 21.753906 -16.027344 C 22.992188 -16.179688 24.15625 -16.335938 25.394531 -16.566406 C 26.554688 -16.722656 27.5625 -16.957031 28.492188 -17.1875 C 30.503906 -17.652344 32.515625 -18.269531 34.53125 -18.96875 C 36.542969 -19.664062 38.246094 -20.363281 39.484375 -20.980469 C 40.105469 -21.289062 40.570312 -21.523438 40.957031 -21.832031 C 41.265625 -21.988281 41.421875 -22.21875 41.421875 -22.375 L 41.421875 -22.453125 C 41.265625 -22.605469 39.949219 -22.605469 37.316406 -22.453125 C 34.683594 -22.21875 31.511719 -21.910156 27.949219 -21.445312 C 24.15625 -20.980469 20.828125 -20.59375 18.039062 -20.4375 C 15.097656 -20.128906 13.160156 -20.128906 12.234375 -20.363281 C 12.308594 -21.289062 12.308594 -22.453125 12.234375 -23.84375 C 12.078125 -25.238281 11.070312 -26.554688 9.214844 -27.949219 Z M 5.417969 -25.625 L 5.652344 -25.625 C 5.730469 -25.625 5.804688 -25.703125 5.882812 -25.703125 L 6.347656 -25.703125 C 7.277344 -25.703125 8.128906 -25.238281 8.75 -24.464844 C 9.136719 -24 9.367188 -23.457031 9.367188 -22.992188 C 9.367188 -22.53125 9.214844 -22.066406 8.902344 -21.601562 C 8.207031 -21.832031 7.511719 -22.375 6.734375 -23.226562 C 5.960938 -24 5.496094 -24.851562 5.417969 -25.625 Z M 1.859375 -14.089844 C 1.394531 -14.398438 1.238281 -15.175781 1.238281 -16.335938 C 1.238281 -16.722656 1.238281 -17.1875 1.316406 -17.808594 C 1.546875 -19.742188 2.089844 -21.136719 2.863281 -21.988281 C 3.40625 -20.828125 4.101562 -19.898438 5.03125 -19.121094 C 5.882812 -18.347656 6.582031 -17.808594 7.046875 -17.574219 C 7.046875 -17.34375 6.890625 -17.03125 6.582031 -16.566406 C 6.195312 -16.105469 5.882812 -15.640625 5.574219 -15.328125 C 4.953125 -14.632812 4.335938 -14.167969 3.640625 -13.9375 C 3.328125 -13.78125 3.019531 -13.78125 2.789062 -13.78125 C 2.398438 -13.78125 2.089844 -13.859375 1.859375 -14.089844 Z M 1.859375 -14.089844 "/></g></g></g><g fill="#000000" fill-opacity="1"><g transform="translate(405.049954, 86.677908)"><g><path d="M 11.921875 -35.691406 C 11.769531 -36.464844 11.457031 -37.238281 10.992188 -38.015625 C 10.527344 -38.789062 9.910156 -39.175781 9.136719 -39.175781 C 7.742188 -39.175781 6.117188 -38.476562 4.335938 -37.085938 C 2.476562 -35.691406 1.007812 -33.753906 -0.15625 -31.355469 C -1.316406 -29.109375 -1.859375 -27.328125 -1.859375 -25.9375 L -1.859375 -25.859375 C -1.859375 -24.464844 -1.394531 -23.226562 -0.308594 -22.066406 C 0.386719 -21.136719 1.082031 -20.59375 1.703125 -20.4375 C 2.324219 -20.207031 3.40625 -20.128906 5.03125 -20.207031 C 6.039062 -20.207031 7.277344 -20.363281 8.75 -20.59375 C 10.140625 -20.828125 11.304688 -21.136719 12.234375 -21.445312 C 14.167969 -21.988281 15.792969 -22.296875 17.03125 -22.453125 C 18.195312 -22.53125 18.8125 -22.375 18.8125 -21.910156 C 18.8125 -21.753906 18.195312 -20.671875 16.957031 -18.660156 C 15.714844 -16.644531 14.246094 -14.324219 12.542969 -11.691406 C 10.761719 -8.980469 9.136719 -6.503906 7.742188 -4.179688 C 6.347656 -1.859375 5.496094 -0.308594 5.1875 0.308594 C 4.566406 1.78125 4.335938 3.097656 4.644531 4.257812 C 4.878906 5.417969 5.496094 6.195312 6.582031 6.582031 C 6.8125 6.734375 7.199219 6.890625 7.820312 7.046875 C 7.898438 7.121094 8.050781 7.121094 8.285156 7.121094 C 8.824219 7.121094 9.675781 6.96875 10.761719 6.503906 C 11.535156 6.269531 12.464844 5.882812 13.546875 5.265625 C 14.632812 4.800781 15.949219 4.027344 17.496094 3.097656 C 18.96875 2.167969 20.980469 0.695312 23.457031 -1.316406 C 25.9375 -3.328125 28.566406 -5.574219 31.199219 -7.972656 C 33.753906 -10.296875 36.234375 -12.621094 38.632812 -14.941406 C 40.957031 -17.265625 42.890625 -19.121094 44.285156 -20.671875 C 44.980469 -21.445312 45.523438 -22.140625 45.988281 -22.683594 C 46.296875 -23.070312 46.453125 -23.382812 46.453125 -23.535156 C 46.453125 -23.535156 46.375 -23.613281 46.375 -23.691406 C 46.21875 -23.84375 45.832031 -23.691406 45.214844 -23.382812 C 44.515625 -22.992188 42.8125 -21.832031 40.179688 -19.898438 C 38.789062 -18.8125 36.929688 -17.496094 34.761719 -15.792969 C 32.515625 -14.089844 29.808594 -12.078125 26.554688 -9.675781 C 22.453125 -6.582031 18.890625 -3.949219 15.871094 -1.859375 C 12.773438 0.308594 11.070312 1.238281 10.839844 0.929688 C 10.683594 0.773438 11.070312 -0.078125 12 -1.78125 C 12.929688 -3.40625 14.089844 -5.265625 15.5625 -7.433594 C 16.957031 -9.601562 18.195312 -11.535156 19.277344 -13.238281 C 20.285156 -14.863281 21.136719 -16.335938 21.832031 -17.574219 C 23.070312 -19.898438 23.691406 -21.679688 23.769531 -22.917969 C 23.769531 -24.078125 23.304688 -25.160156 22.53125 -26.089844 C 21.753906 -26.863281 20.59375 -27.253906 18.890625 -27.328125 C 17.109375 -27.328125 14.632812 -26.941406 11.382812 -26.167969 C 9.988281 -25.859375 8.980469 -25.625 8.515625 -25.550781 C 7.898438 -25.394531 7.585938 -25.394531 7.511719 -25.550781 C 7.355469 -25.703125 7.511719 -25.9375 8.050781 -26.324219 C 8.515625 -26.710938 9.058594 -27.175781 9.675781 -27.792969 C 11.226562 -29.496094 12 -30.96875 12.078125 -32.363281 C 12.078125 -33.679688 12.078125 -34.761719 11.921875 -35.691406 Z M 3.40625 -28.105469 C 3.640625 -29.1875 4.335938 -30.425781 5.417969 -31.898438 C 6.425781 -33.136719 7.199219 -33.832031 7.820312 -33.832031 L 7.898438 -33.832031 C 7.972656 -33.832031 8.050781 -33.753906 8.050781 -33.601562 C 8.050781 -33.367188 7.898438 -32.980469 7.742188 -32.515625 C 7.277344 -31.664062 6.8125 -30.8125 6.195312 -30.039062 C 5.652344 -29.34375 5.109375 -28.800781 4.644531 -28.414062 C 4.335938 -28.105469 4.027344 -28.027344 3.792969 -28.027344 C 3.640625 -27.949219 3.484375 -27.949219 3.40625 -28.105469 Z M 3.40625 -28.105469 "/></g></g></g><g fill="#000000" fill-opacity="1"><g transform="translate(449.487111, 86.677908)"><g><path d="M 30.273438 -50.941406 C 32.285156 -53.730469 33.136719 -56.363281 32.828125 -58.839844 C 32.515625 -61.164062 31.511719 -62.324219 29.960938 -62.324219 L 29.808594 -62.324219 C 29.1875 -62.324219 28.566406 -62.167969 27.871094 -61.859375 C 27.097656 -61.550781 26.324219 -61.085938 25.550781 -60.464844 C 24.773438 -59.925781 23.84375 -59.148438 22.839844 -58.21875 C 21.832031 -57.214844 20.828125 -56.128906 19.742188 -54.890625 C 17.574219 -52.570312 15.484375 -49.9375 13.316406 -46.996094 C 11.070312 -44.050781 9.214844 -41.1875 7.742188 -38.476562 C 7.121094 -37.394531 6.582031 -36.386719 6.117188 -35.613281 L 4.722656 -33.292969 L 1.546875 -33.292969 C -0.464844 -33.367188 -1.472656 -32.828125 -1.546875 -31.664062 L -1.546875 -31.355469 C -1.546875 -30.273438 -1.160156 -29.496094 -0.230469 -28.878906 C -0.078125 -28.722656 0.386719 -28.644531 1.082031 -28.644531 C 1.703125 -28.644531 2.167969 -28.566406 2.632812 -28.566406 C 2.632812 -28.105469 2.324219 -27.40625 1.859375 -26.324219 C 1.316406 -25.238281 0.773438 -23.921875 0.230469 -22.53125 C -0.15625 -21.601562 -0.464844 -20.515625 -0.695312 -19.433594 C -1.007812 -18.195312 -1.160156 -17.03125 -1.238281 -15.792969 C -1.546875 -13.394531 -1.625 -11.148438 -1.472656 -9.058594 C -1.394531 -6.890625 -1.082031 -5.496094 -0.542969 -4.878906 C 0.386719 -3.40625 1.78125 -2.710938 3.5625 -2.789062 L 4.179688 -2.789062 C 6.195312 -2.941406 8.515625 -3.792969 10.992188 -5.1875 C 12.695312 -6.117188 14.554688 -7.199219 16.722656 -8.515625 C 18.8125 -9.753906 22.140625 -11.921875 26.710938 -15.019531 C 29.730469 -17.03125 32.515625 -18.582031 34.996094 -19.820312 C 37.472656 -21.058594 39.175781 -21.910156 40.179688 -22.53125 C 40.414062 -22.605469 40.492188 -22.761719 40.492188 -22.917969 L 40.492188 -22.992188 C 40.414062 -23.148438 40.179688 -23.226562 39.871094 -23.304688 C 38.554688 -23.382812 36.386719 -22.992188 33.292969 -22.066406 C 30.195312 -21.136719 25.9375 -19.121094 20.59375 -16.027344 C 18.195312 -14.632812 16.179688 -13.546875 14.476562 -12.621094 C 12.773438 -11.691406 11.304688 -10.917969 10.21875 -10.375 C 7.511719 -9.058594 5.960938 -8.59375 5.496094 -8.902344 C 5.03125 -9.214844 4.644531 -9.753906 4.335938 -10.527344 C 4.101562 -10.992188 4.101562 -12.078125 4.335938 -13.78125 C 4.492188 -15.484375 4.878906 -17.265625 5.417969 -19.121094 C 5.652344 -20.128906 5.960938 -21.136719 6.269531 -22.140625 C 6.582031 -23.070312 6.96875 -23.921875 7.355469 -24.699219 C 8.207031 -26.402344 8.824219 -27.714844 9.289062 -28.644531 C 10.683594 -28.878906 12.078125 -29.109375 13.625 -29.265625 C 15.019531 -29.421875 16.414062 -29.652344 17.730469 -29.882812 C 19.898438 -30.195312 21.679688 -30.503906 22.992188 -30.890625 C 24.234375 -31.199219 24.929688 -31.585938 24.929688 -31.976562 C 25.085938 -32.4375 24.308594 -32.828125 22.761719 -32.980469 C 21.136719 -33.136719 19.433594 -33.214844 17.652344 -33.214844 C 16.566406 -33.292969 15.328125 -33.292969 14.089844 -33.292969 L 11.148438 -33.292969 C 11.148438 -33.679688 11.613281 -34.296875 12.621094 -35.070312 C 13.625 -35.847656 15.097656 -36.929688 17.109375 -38.246094 C 18.347656 -39.019531 19.742188 -40.179688 21.445312 -41.652344 C 23.148438 -43.046875 24.699219 -44.59375 26.246094 -46.144531 C 27.019531 -46.917969 27.792969 -47.769531 28.492188 -48.621094 C 29.1875 -49.394531 29.808594 -50.167969 30.273438 -50.941406 Z M 25.472656 -55.511719 C 26.089844 -56.054688 26.632812 -56.515625 27.175781 -56.90625 C 27.5625 -57.214844 27.871094 -57.367188 28.105469 -57.367188 L 28.179688 -57.367188 C 28.179688 -57.367188 28.257812 -57.292969 28.257812 -57.292969 L 28.257812 -57.214844 C 28.257812 -57.136719 28.335938 -57.058594 28.335938 -57.058594 C 28.335938 -56.441406 27.792969 -55.433594 26.789062 -53.960938 C 25.625 -52.257812 24.078125 -50.402344 22.140625 -48.234375 C 20.4375 -46.375 18.8125 -44.828125 17.109375 -43.433594 C 15.871094 -42.347656 15.019531 -41.882812 14.710938 -41.882812 C 14.554688 -41.882812 14.554688 -41.960938 14.554688 -42.117188 C 14.554688 -42.347656 15.097656 -43.277344 16.335938 -44.902344 C 17.574219 -46.453125 18.890625 -48.078125 20.363281 -49.859375 C 21.289062 -50.941406 22.296875 -52.027344 23.226562 -53.109375 C 24.15625 -54.117188 24.851562 -54.890625 25.472656 -55.511719 Z M 25.472656 -55.511719 "/></g></g></g><g fill="#000000" fill-opacity="1"><g transform="translate(487.576101, 86.677908)"><g><path d="M 29.574219 -32.902344 C 29.265625 -33.058594 29.03125 -33.136719 28.722656 -33.214844 C 28.566406 -33.214844 28.335938 -33.292969 28.105469 -33.292969 L 27.871094 -33.292969 C 26.863281 -33.136719 25.550781 -32.515625 23.84375 -31.355469 C 22.140625 -30.117188 19.664062 -28.105469 16.414062 -25.316406 C 11.613281 -21.214844 8.050781 -18.503906 5.882812 -17.109375 C 3.714844 -15.714844 2.476562 -15.40625 2.167969 -16.335938 C 2.011719 -16.566406 2.089844 -17.34375 2.324219 -18.582031 C 2.476562 -19.820312 2.863281 -21.136719 3.328125 -22.605469 C 4.101562 -25.238281 4.414062 -26.941406 4.414062 -27.714844 C 4.414062 -28.414062 3.949219 -28.644531 3.019531 -28.335938 C 2.632812 -28.179688 2.089844 -27.253906 1.394531 -25.703125 C 0.621094 -24.078125 -0.15625 -22.375 -0.773438 -20.671875 C -1.238281 -19.433594 -1.546875 -18.347656 -1.859375 -17.34375 C -2.167969 -16.257812 -2.246094 -15.484375 -2.246094 -15.019531 C -2.246094 -13.859375 -1.78125 -12.851562 -0.851562 -11.921875 C 0.078125 -10.992188 1.082031 -10.527344 2.246094 -10.527344 C 3.640625 -10.527344 5.496094 -11.226562 7.972656 -12.621094 C 10.375 -14.011719 13.160156 -16.027344 16.414062 -18.734375 C 17.960938 -20.050781 19.433594 -21.136719 20.671875 -22.066406 C 21.832031 -22.992188 22.453125 -23.382812 22.605469 -23.304688 C 22.605469 -23.148438 22.21875 -22.21875 21.445312 -20.515625 C 20.671875 -18.8125 19.742188 -16.957031 18.734375 -14.941406 C 17.882812 -13.238281 17.109375 -11.769531 16.335938 -10.453125 C 15.5625 -9.058594 15.097656 -8.128906 14.789062 -7.820312 C 14.554688 -7.511719 13.859375 -6.96875 12.773438 -6.039062 C 11.535156 -5.03125 10.21875 -4.027344 8.824219 -3.019531 C 4.953125 -0.078125 1.394531 3.097656 -1.859375 6.347656 C -5.109375 9.675781 -7.199219 12.386719 -8.128906 14.554688 C -9.214844 16.878906 -9.832031 18.582031 -9.832031 19.664062 L -9.832031 19.820312 C -9.832031 20.902344 -9.445312 21.910156 -8.515625 22.761719 C -7.585938 23.84375 -6.425781 24.308594 -5.109375 24.308594 C -3.40625 24.308594 -1.394531 23.304688 0.929688 21.214844 C 4.800781 17.808594 9.675781 11.226562 15.5625 1.316406 C 17.109375 -1.316406 18.347656 -3.25 19.121094 -4.566406 C 25.625 -8.671875 30.582031 -11.769531 33.910156 -13.859375 C 37.78125 -16.257812 40.800781 -18.117188 42.8125 -19.355469 C 44.828125 -20.59375 46.296875 -21.445312 47.148438 -22.066406 C 47.460938 -22.21875 47.613281 -22.453125 47.613281 -22.605469 C 47.613281 -22.683594 47.535156 -22.761719 47.460938 -22.917969 C 47.148438 -23.148438 46.761719 -23.226562 46.296875 -23.148438 C 45.367188 -22.992188 43.898438 -22.605469 42.039062 -22.140625 C 40.027344 -21.601562 37.550781 -20.59375 34.53125 -19.046875 C 31.898438 -17.652344 29.574219 -16.414062 27.5625 -15.25 C 25.472656 -14.011719 24.234375 -13.238281 23.84375 -13.085938 C 23.613281 -12.929688 23.921875 -13.78125 24.851562 -15.5625 C 25.703125 -17.265625 26.632812 -19.121094 27.640625 -21.214844 C 29.34375 -24.929688 30.425781 -27.640625 30.734375 -29.34375 C 30.96875 -31.046875 30.582031 -32.207031 29.574219 -32.902344 Z M -3.640625 17.109375 L -3.640625 16.878906 C -3.640625 16.105469 -3.097656 14.941406 -1.859375 13.394531 C -0.621094 11.769531 0.929688 10.140625 2.632812 8.515625 C 3.5625 7.585938 4.492188 6.734375 5.417969 5.960938 C 6.347656 5.1875 7.199219 4.492188 7.972656 3.871094 C 7.972656 3.871094 8.050781 3.949219 8.050781 3.949219 C 8.050781 4.101562 7.742188 4.566406 7.277344 5.265625 C 6.660156 6.195312 5.882812 7.277344 5.03125 8.515625 C 4.566406 9.136719 4.027344 9.832031 3.5625 10.453125 C 3.019531 11.148438 2.554688 11.769531 2.167969 12.308594 C 0.464844 14.554688 -0.929688 16.105469 -2.011719 16.957031 C -2.632812 17.417969 -3.019531 17.730469 -3.25 17.730469 C -3.5625 17.730469 -3.640625 17.574219 -3.640625 17.109375 Z M -3.640625 17.109375 "/></g></g></g><g fill="#21ffb6" fill-opacity="0.302"><g transform="translate(179.884747, 150.339836)"><g><path d="M 30.582031 3.640625 C 31.125 4.335938 31.742188 4.800781 32.363281 4.953125 C 32.980469 5.1875 33.832031 5.265625 34.996094 5.109375 C 35.691406 5.03125 36.386719 4.878906 37.085938 4.644531 C 37.703125 4.492188 38.324219 4.101562 39.097656 3.5625 C 40.414062 2.710938 41.882812 1.238281 43.589844 -0.851562 C 45.214844 -2.941406 47.304688 -5.960938 49.859375 -9.910156 C 51.871094 -13.085938 54.347656 -17.109375 57.214844 -21.910156 C 60.078125 -26.632812 63.484375 -32.363281 67.355469 -39.019531 C 70.296875 -44.050781 72.851562 -48.386719 75.019531 -52.105469 C 77.109375 -55.742188 78.890625 -58.839844 80.285156 -61.394531 C 82.917969 -66.117188 84.464844 -69.214844 85.085938 -70.761719 C 85.242188 -71.382812 85.394531 -71.925781 85.394531 -72.3125 C 85.394531 -72.699219 85.242188 -72.929688 84.929688 -72.929688 L 84.851562 -72.929688 C 83.925781 -72.777344 82.144531 -70.996094 79.355469 -67.433594 C 76.570312 -63.871094 73.242188 -59.070312 69.371094 -53.035156 C 67.203125 -49.78125 64.878906 -46.21875 62.554688 -42.347656 C 60.078125 -38.476562 57.601562 -34.375 55.125 -30.039062 C 48.929688 -19.664062 44.207031 -12.15625 41.03125 -7.585938 C 37.78125 -3.019531 35.847656 -1.082031 35.070312 -1.703125 C 34.296875 -2.246094 34.21875 -4.414062 34.761719 -8.128906 C 35.226562 -11.84375 36.464844 -18.425781 38.554688 -27.714844 C 39.175781 -30.660156 39.71875 -33.214844 40.179688 -35.457031 C 40.570312 -37.625 40.878906 -39.5625 41.1875 -41.265625 C 41.652344 -44.363281 41.730469 -46.609375 41.574219 -48.078125 C 41.34375 -49.472656 40.878906 -50.476562 40.105469 -51.175781 C 37.78125 -52.957031 34.839844 -51.71875 31.277344 -47.382812 C 27.640625 -42.96875 22.605469 -34.683594 16.257812 -22.453125 C 15.175781 -20.4375 14.324219 -18.660156 13.546875 -17.1875 C 12.773438 -15.714844 12.078125 -14.476562 11.613281 -13.472656 C 9.910156 -10.296875 8.980469 -8.59375 8.824219 -8.4375 C 8.59375 -8.285156 8.363281 -8.285156 8.128906 -8.515625 C 7.820312 -8.671875 7.898438 -9.910156 8.363281 -12.15625 C 8.824219 -14.324219 9.445312 -17.109375 10.296875 -20.4375 C 10.683594 -22.140625 11.148438 -24 11.769531 -26.011719 C 12.234375 -27.949219 12.851562 -29.960938 13.472656 -31.976562 C 14.554688 -35.847656 15.714844 -39.5625 16.957031 -43.199219 C 18.117188 -46.839844 19.199219 -49.859375 20.207031 -52.257812 C 21.445312 -55.277344 22.140625 -57.292969 22.375 -58.296875 C 22.53125 -59.226562 22.296875 -59.691406 21.679688 -59.691406 C 20.902344 -59.535156 19.664062 -57.832031 17.960938 -54.582031 C 16.257812 -51.253906 14.398438 -47.226562 12.542969 -42.425781 C 11.457031 -39.792969 10.453125 -37.007812 9.523438 -34.21875 C 8.4375 -31.355469 7.511719 -28.492188 6.734375 -25.703125 C 3.328125 -14.398438 1.472656 -6.269531 1.316406 -1.160156 C 1.238281 -0.695312 1.238281 -0.308594 1.238281 0 C 1.238281 4.101562 2.398438 6.117188 4.722656 6.117188 L 5.1875 6.117188 C 6.117188 6.039062 7.046875 5.574219 7.972656 4.644531 C 8.824219 3.871094 10.066406 2.089844 11.613281 -0.542969 C 12.386719 -1.933594 13.394531 -3.640625 14.476562 -5.730469 C 15.5625 -7.742188 16.800781 -10.21875 18.347656 -13.160156 C 24.078125 -24.15625 28.257812 -31.898438 30.890625 -36.386719 C 33.523438 -40.800781 35.070312 -42.8125 35.691406 -42.347656 C 35.769531 -42.273438 35.535156 -40.570312 34.917969 -37.316406 C 34.21875 -33.988281 33.367188 -30.039062 32.4375 -25.550781 C 30.347656 -16.257812 29.1875 -9.523438 28.957031 -5.265625 C 28.644531 -0.929688 29.1875 2.011719 30.582031 3.640625 Z M 30.582031 3.640625 "/></g></g></g><g fill="#21ffb6" fill-opacity="0.302"><g transform="translate(246.463064, 150.339836)"><g><path d="M 1.316406 -13.238281 C 2.476562 -12.15625 3.40625 -11.613281 4.101562 -11.457031 C 4.414062 -11.382812 4.878906 -11.382812 5.652344 -11.382812 C 6.582031 -11.382812 7.898438 -11.382812 9.601562 -11.535156 C 11.457031 -11.613281 13.859375 -12 16.957031 -12.695312 C 20.050781 -13.316406 23.226562 -14.167969 26.554688 -15.097656 C 29.730469 -15.949219 32.828125 -16.878906 35.921875 -17.882812 C 38.867188 -18.8125 41.34375 -19.742188 43.199219 -20.59375 C 44.128906 -20.980469 44.902344 -21.367188 45.523438 -21.753906 C 46.144531 -22.066406 46.453125 -22.375 46.453125 -22.605469 C 46.453125 -23.070312 44.828125 -23.148438 41.574219 -22.683594 C 38.324219 -22.21875 32.671875 -21.136719 24.699219 -19.585938 C 20.828125 -18.8125 17.34375 -18.195312 14.089844 -17.652344 C 10.761719 -17.109375 8.75 -16.878906 7.972656 -16.878906 C 5.652344 -16.878906 4.335938 -17.34375 3.949219 -18.269531 C 3.484375 -19.199219 3.714844 -21.445312 4.492188 -25.007812 C 4.800781 -26.710938 5.109375 -28.179688 5.417969 -29.421875 C 5.652344 -30.660156 5.804688 -31.277344 5.804688 -31.355469 C 5.804688 -31.433594 5.730469 -31.511719 5.574219 -31.664062 C 5.417969 -31.742188 5.1875 -31.820312 5.03125 -31.976562 L 4.878906 -31.976562 C 4.414062 -31.898438 3.871094 -31.277344 3.097656 -30.039062 C 2.246094 -28.566406 1.472656 -26.941406 0.695312 -25.160156 C 0.230469 -23.921875 -0.15625 -22.761719 -0.464844 -21.601562 C -0.851562 -20.4375 -1.007812 -19.511719 -1.007812 -18.734375 L -1.007812 -18.269531 C -1.007812 -17.03125 -0.929688 -16.105469 -0.695312 -15.5625 C -0.464844 -14.941406 0.230469 -14.167969 1.316406 -13.238281 Z M 6.347656 -36.699219 C 6.503906 -36.386719 6.660156 -36.078125 6.96875 -35.921875 C 7.199219 -35.691406 7.433594 -35.613281 7.585938 -35.613281 C 8.050781 -35.613281 8.824219 -36.308594 10.066406 -37.859375 C 11.226562 -39.40625 11.921875 -40.644531 12.15625 -41.574219 C 12.234375 -41.882812 12.308594 -42.195312 12.308594 -42.503906 C 12.308594 -43.511719 11.84375 -44.285156 10.917969 -44.902344 C 10.375 -45.214844 9.910156 -45.367188 9.523438 -45.367188 C 8.824219 -45.367188 8.207031 -44.980469 7.742188 -44.363281 C 7.121094 -43.664062 6.660156 -42.347656 6.347656 -40.492188 C 6.117188 -39.5625 6.039062 -38.789062 6.039062 -38.167969 C 6.039062 -37.550781 6.117188 -37.007812 6.347656 -36.699219 Z M 6.347656 -36.699219 "/></g></g></g><g fill="#21ffb6" fill-opacity="0.302"><g transform="translate(290.900221, 150.339836)"><g><path d="M 36.078125 -66.582031 C 35.691406 -67.277344 35.226562 -67.820312 34.683594 -68.207031 C 34.066406 -68.519531 33.367188 -68.75 32.59375 -68.75 L 32.515625 -68.75 C 31.199219 -68.75 29.652344 -68.363281 27.949219 -67.433594 C 26.167969 -66.503906 24.308594 -65.109375 22.375 -63.332031 C 19.664062 -60.851562 16.722656 -56.980469 13.472656 -51.640625 C 10.21875 -46.21875 7.121094 -40.492188 4.335938 -34.296875 C 2.789062 -30.890625 1.472656 -27.5625 0.230469 -24.308594 C -1.007812 -20.902344 -2.089844 -17.730469 -2.863281 -14.789062 C -3.175781 -13.703125 -3.40625 -12.621094 -3.640625 -11.535156 C -3.949219 -10.375 -4.179688 -9.214844 -4.335938 -8.128906 C -4.800781 -6.039062 -5.109375 -4.179688 -5.265625 -2.476562 C -5.34375 -1.546875 -5.34375 -0.929688 -5.34375 -0.464844 C -5.34375 0 -5.34375 0.308594 -5.265625 0.464844 C -5.109375 0.695312 -4.953125 0.773438 -4.800781 0.773438 C -4.492188 0.773438 -4.179688 0.542969 -3.792969 0 C -3.175781 -0.773438 -2.398438 -2.246094 -1.546875 -4.335938 C -1.082031 -5.417969 -0.621094 -6.503906 -0.15625 -7.433594 C 0.308594 -8.363281 0.621094 -8.980469 0.929688 -9.289062 C 1.160156 -9.601562 2.246094 -9.832031 4.179688 -9.988281 C 6.039062 -10.140625 9.136719 -10.296875 13.472656 -10.375 C 15.871094 -10.375 18.117188 -10.453125 20.128906 -10.605469 C 22.140625 -10.683594 24 -10.839844 25.78125 -11.070312 C 28.878906 -11.382812 31.742188 -11.921875 34.296875 -12.695312 C 36.773438 -13.394531 39.253906 -14.398438 41.882812 -15.640625 C 42.738281 -16.027344 43.664062 -16.492188 44.59375 -17.03125 C 45.523438 -17.574219 46.453125 -18.117188 47.382812 -18.734375 C 49.085938 -19.820312 50.476562 -20.902344 51.640625 -21.910156 C 52.570312 -22.683594 53.109375 -23.226562 53.109375 -23.535156 C 53.109375 -23.613281 53.035156 -23.691406 53.035156 -23.691406 C 52.957031 -23.769531 52.414062 -23.613281 51.484375 -23.226562 C 50.402344 -22.839844 49.238281 -22.375 48 -21.832031 C 43.898438 -19.976562 39.640625 -18.503906 35.148438 -17.574219 C 30.660156 -16.644531 25.625 -16.027344 19.976562 -15.871094 C 15.484375 -15.640625 12.078125 -15.484375 9.910156 -15.484375 C 12.542969 -18.039062 14.632812 -19.976562 16.027344 -21.367188 C 18.96875 -24.234375 20.828125 -26.324219 21.601562 -27.640625 C 22.21875 -28.878906 22.066406 -29.960938 21.058594 -30.8125 C 20.4375 -31.355469 19.199219 -31.277344 17.496094 -30.582031 C 15.714844 -29.808594 13.625 -28.566406 11.226562 -26.710938 C 10.140625 -25.9375 9.289062 -25.394531 8.515625 -24.929688 C 7.742188 -24.464844 7.277344 -24.308594 7.277344 -24.464844 C 7.121094 -24.621094 7.433594 -25.550781 8.050781 -27.253906 C 8.671875 -28.957031 9.445312 -30.890625 10.375 -33.136719 L 13.859375 -41.265625 C 15.792969 -42.195312 17.265625 -42.96875 18.269531 -43.433594 C 20.128906 -44.363281 21.910156 -45.445312 23.691406 -46.761719 C 25.394531 -48.078125 27.019531 -49.472656 28.566406 -51.019531 C 31.355469 -53.808594 33.445312 -56.59375 34.996094 -59.535156 C 36.464844 -62.480469 36.851562 -64.800781 36.078125 -66.582031 Z M 22.761719 -57.292969 C 24.621094 -60 26.476562 -62.167969 28.335938 -63.71875 C 30.117188 -65.265625 31.585938 -66.039062 32.671875 -66.195312 L 32.828125 -66.195312 C 33.523438 -66.195312 33.988281 -65.808594 34.144531 -65.035156 C 34.144531 -64.878906 34.21875 -64.722656 34.21875 -64.570312 C 34.21875 -63.71875 33.832031 -62.480469 33.136719 -60.851562 C 32.128906 -58.609375 30.734375 -56.441406 28.957031 -54.425781 C 27.097656 -52.335938 24.929688 -50.402344 22.453125 -48.621094 C 20.4375 -47.148438 18.890625 -46.21875 17.960938 -45.753906 C 17.496094 -45.523438 17.109375 -45.445312 16.878906 -45.445312 C 16.566406 -45.445312 16.492188 -45.523438 16.492188 -45.832031 C 16.492188 -46.066406 16.800781 -46.917969 17.574219 -48.3125 C 18.195312 -49.625 19.046875 -51.097656 19.976562 -52.644531 C 20.4375 -53.496094 20.902344 -54.347656 21.445312 -55.125 C 21.910156 -55.898438 22.296875 -56.671875 22.761719 -57.292969 Z M 11.457031 -23.613281 L 13.472656 -25.007812 C 14.089844 -25.472656 14.632812 -25.78125 15.175781 -25.9375 L 15.40625 -25.9375 C 15.40625 -25.9375 15.484375 -25.859375 15.5625 -25.859375 L 15.5625 -25.78125 C 15.5625 -25.625 15.25 -25.160156 14.789062 -24.464844 C 14.167969 -23.691406 13.546875 -22.992188 12.773438 -22.453125 C 11.691406 -21.523438 10.375 -20.515625 8.671875 -19.277344 C 6.96875 -18.039062 5.574219 -17.03125 4.492188 -16.335938 C 4.644531 -16.878906 5.496094 -17.882812 6.890625 -19.433594 C 8.285156 -20.980469 9.832031 -22.375 11.457031 -23.613281 Z M 11.457031 -23.613281 "/></g></g></g><g fill="#21ffb6" fill-opacity="0.302"><g transform="translate(341.375875, 150.339836)"><g><path d="M 1.316406 -13.238281 C 2.476562 -12.15625 3.40625 -11.613281 4.101562 -11.457031 C 4.414062 -11.382812 4.878906 -11.382812 5.652344 -11.382812 C 6.582031 -11.382812 7.898438 -11.382812 9.601562 -11.535156 C 11.457031 -11.613281 13.859375 -12 16.957031 -12.695312 C 20.050781 -13.316406 23.226562 -14.167969 26.554688 -15.097656 C 29.730469 -15.949219 32.828125 -16.878906 35.921875 -17.882812 C 38.867188 -18.8125 41.34375 -19.742188 43.199219 -20.59375 C 44.128906 -20.980469 44.902344 -21.367188 45.523438 -21.753906 C 46.144531 -22.066406 46.453125 -22.375 46.453125 -22.605469 C 46.453125 -23.070312 44.828125 -23.148438 41.574219 -22.683594 C 38.324219 -22.21875 32.671875 -21.136719 24.699219 -19.585938 C 20.828125 -18.8125 17.34375 -18.195312 14.089844 -17.652344 C 10.761719 -17.109375 8.75 -16.878906 7.972656 -16.878906 C 5.652344 -16.878906 4.335938 -17.34375 3.949219 -18.269531 C 3.484375 -19.199219 3.714844 -21.445312 4.492188 -25.007812 C 4.800781 -26.710938 5.109375 -28.179688 5.417969 -29.421875 C 5.652344 -30.660156 5.804688 -31.277344 5.804688 -31.355469 C 5.804688 -31.433594 5.730469 -31.511719 5.574219 -31.664062 C 5.417969 -31.742188 5.1875 -31.820312 5.03125 -31.976562 L 4.878906 -31.976562 C 4.414062 -31.898438 3.871094 -31.277344 3.097656 -30.039062 C 2.246094 -28.566406 1.472656 -26.941406 0.695312 -25.160156 C 0.230469 -23.921875 -0.15625 -22.761719 -0.464844 -21.601562 C -0.851562 -20.4375 -1.007812 -19.511719 -1.007812 -18.734375 L -1.007812 -18.269531 C -1.007812 -17.03125 -0.929688 -16.105469 -0.695312 -15.5625 C -0.464844 -14.941406 0.230469 -14.167969 1.316406 -13.238281 Z M 6.347656 -36.699219 C 6.503906 -36.386719 6.660156 -36.078125 6.96875 -35.921875 C 7.199219 -35.691406 7.433594 -35.613281 7.585938 -35.613281 C 8.050781 -35.613281 8.824219 -36.308594 10.066406 -37.859375 C 11.226562 -39.40625 11.921875 -40.644531 12.15625 -41.574219 C 12.234375 -41.882812 12.308594 -42.195312 12.308594 -42.503906 C 12.308594 -43.511719 11.84375 -44.285156 10.917969 -44.902344 C 10.375 -45.214844 9.910156 -45.367188 9.523438 -45.367188 C 8.824219 -45.367188 8.207031 -44.980469 7.742188 -44.363281 C 7.121094 -43.664062 6.660156 -42.347656 6.347656 -40.492188 C 6.117188 -39.5625 6.039062 -38.789062 6.039062 -38.167969 C 6.039062 -37.550781 6.117188 -37.007812 6.347656 -36.699219 Z M 6.347656 -36.699219 "/></g></g></g><g fill="#21ffb6" fill-opacity="0.502"><g transform="translate(179.037317, 148.011538)"><g><path d="M 30.582031 3.640625 C 31.125 4.335938 31.742188 4.800781 32.363281 4.953125 C 32.980469 5.1875 33.832031 5.265625 34.996094 5.109375 C 35.691406 5.03125 36.386719 4.878906 37.085938 4.644531 C 37.703125 4.492188 38.324219 4.101562 39.097656 3.5625 C 40.414062 2.710938 41.882812 1.238281 43.589844 -0.851562 C 45.214844 -2.941406 47.304688 -5.960938 49.859375 -9.910156 C 51.871094 -13.085938 54.347656 -17.109375 57.214844 -21.910156 C 60.078125 -26.632812 63.484375 -32.363281 67.355469 -39.019531 C 70.296875 -44.050781 72.851562 -48.386719 75.019531 -52.105469 C 77.109375 -55.742188 78.890625 -58.839844 80.285156 -61.394531 C 82.917969 -66.117188 84.464844 -69.214844 85.085938 -70.761719 C 85.242188 -71.382812 85.394531 -71.925781 85.394531 -72.3125 C 85.394531 -72.699219 85.242188 -72.929688 84.929688 -72.929688 L 84.851562 -72.929688 C 83.925781 -72.777344 82.144531 -70.996094 79.355469 -67.433594 C 76.570312 -63.871094 73.242188 -59.070312 69.371094 -53.035156 C 67.203125 -49.78125 64.878906 -46.21875 62.554688 -42.347656 C 60.078125 -38.476562 57.601562 -34.375 55.125 -30.039062 C 48.929688 -19.664062 44.207031 -12.15625 41.03125 -7.585938 C 37.78125 -3.019531 35.847656 -1.082031 35.070312 -1.703125 C 34.296875 -2.246094 34.21875 -4.414062 34.761719 -8.128906 C 35.226562 -11.84375 36.464844 -18.425781 38.554688 -27.714844 C 39.175781 -30.660156 39.71875 -33.214844 40.179688 -35.457031 C 40.570312 -37.625 40.878906 -39.5625 41.1875 -41.265625 C 41.652344 -44.363281 41.730469 -46.609375 41.574219 -48.078125 C 41.34375 -49.472656 40.878906 -50.476562 40.105469 -51.175781 C 37.78125 -52.957031 34.839844 -51.71875 31.277344 -47.382812 C 27.640625 -42.96875 22.605469 -34.683594 16.257812 -22.453125 C 15.175781 -20.4375 14.324219 -18.660156 13.546875 -17.1875 C 12.773438 -15.714844 12.078125 -14.476562 11.613281 -13.472656 C 9.910156 -10.296875 8.980469 -8.59375 8.824219 -8.4375 C 8.59375 -8.285156 8.363281 -8.285156 8.128906 -8.515625 C 7.820312 -8.671875 7.898438 -9.910156 8.363281 -12.15625 C 8.824219 -14.324219 9.445312 -17.109375 10.296875 -20.4375 C 10.683594 -22.140625 11.148438 -24 11.769531 -26.011719 C 12.234375 -27.949219 12.851562 -29.960938 13.472656 -31.976562 C 14.554688 -35.847656 15.714844 -39.5625 16.957031 -43.199219 C 18.117188 -46.839844 19.199219 -49.859375 20.207031 -52.257812 C 21.445312 -55.277344 22.140625 -57.292969 22.375 -58.296875 C 22.53125 -59.226562 22.296875 -59.691406 21.679688 -59.691406 C 20.902344 -59.535156 19.664062 -57.832031 17.960938 -54.582031 C 16.257812 -51.253906 14.398438 -47.226562 12.542969 -42.425781 C 11.457031 -39.792969 10.453125 -37.007812 9.523438 -34.21875 C 8.4375 -31.355469 7.511719 -28.492188 6.734375 -25.703125 C 3.328125 -14.398438 1.472656 -6.269531 1.316406 -1.160156 C 1.238281 -0.695312 1.238281 -0.308594 1.238281 0 C 1.238281 4.101562 2.398438 6.117188 4.722656 6.117188 L 5.1875 6.117188 C 6.117188 6.039062 7.046875 5.574219 7.972656 4.644531 C 8.824219 3.871094 10.066406 2.089844 11.613281 -0.542969 C 12.386719 -1.933594 13.394531 -3.640625 14.476562 -5.730469 C 15.5625 -7.742188 16.800781 -10.21875 18.347656 -13.160156 C 24.078125 -24.15625 28.257812 -31.898438 30.890625 -36.386719 C 33.523438 -40.800781 35.070312 -42.8125 35.691406 -42.347656 C 35.769531 -42.273438 35.535156 -40.570312 34.917969 -37.316406 C 34.21875 -33.988281 33.367188 -30.039062 32.4375 -25.550781 C 30.347656 -16.257812 29.1875 -9.523438 28.957031 -5.265625 C 28.644531 -0.929688 29.1875 2.011719 30.582031 3.640625 Z M 30.582031 3.640625 "/></g></g></g><g fill="#21ffb6" fill-opacity="0.502"><g transform="translate(245.615634, 148.011538)"><g><path d="M 1.316406 -13.238281 C 2.476562 -12.15625 3.40625 -11.613281 4.101562 -11.457031 C 4.414062 -11.382812 4.878906 -11.382812 5.652344 -11.382812 C 6.582031 -11.382812 7.898438 -11.382812 9.601562 -11.535156 C 11.457031 -11.613281 13.859375 -12 16.957031 -12.695312 C 20.050781 -13.316406 23.226562 -14.167969 26.554688 -15.097656 C 29.730469 -15.949219 32.828125 -16.878906 35.921875 -17.882812 C 38.867188 -18.8125 41.34375 -19.742188 43.199219 -20.59375 C 44.128906 -20.980469 44.902344 -21.367188 45.523438 -21.753906 C 46.144531 -22.066406 46.453125 -22.375 46.453125 -22.605469 C 46.453125 -23.070312 44.828125 -23.148438 41.574219 -22.683594 C 38.324219 -22.21875 32.671875 -21.136719 24.699219 -19.585938 C 20.828125 -18.8125 17.34375 -18.195312 14.089844 -17.652344 C 10.761719 -17.109375 8.75 -16.878906 7.972656 -16.878906 C 5.652344 -16.878906 4.335938 -17.34375 3.949219 -18.269531 C 3.484375 -19.199219 3.714844 -21.445312 4.492188 -25.007812 C 4.800781 -26.710938 5.109375 -28.179688 5.417969 -29.421875 C 5.652344 -30.660156 5.804688 -31.277344 5.804688 -31.355469 C 5.804688 -31.433594 5.730469 -31.511719 5.574219 -31.664062 C 5.417969 -31.742188 5.1875 -31.820312 5.03125 -31.976562 L 4.878906 -31.976562 C 4.414062 -31.898438 3.871094 -31.277344 3.097656 -30.039062 C 2.246094 -28.566406 1.472656 -26.941406 0.695312 -25.160156 C 0.230469 -23.921875 -0.15625 -22.761719 -0.464844 -21.601562 C -0.851562 -20.4375 -1.007812 -19.511719 -1.007812 -18.734375 L -1.007812 -18.269531 C -1.007812 -17.03125 -0.929688 -16.105469 -0.695312 -15.5625 C -0.464844 -14.941406 0.230469 -14.167969 1.316406 -13.238281 Z M 6.347656 -36.699219 C 6.503906 -36.386719 6.660156 -36.078125 6.96875 -35.921875 C 7.199219 -35.691406 7.433594 -35.613281 7.585938 -35.613281 C 8.050781 -35.613281 8.824219 -36.308594 10.066406 -37.859375 C 11.226562 -39.40625 11.921875 -40.644531 12.15625 -41.574219 C 12.234375 -41.882812 12.308594 -42.195312 12.308594 -42.503906 C 12.308594 -43.511719 11.84375 -44.285156 10.917969 -44.902344 C 10.375 -45.214844 9.910156 -45.367188 9.523438 -45.367188 C 8.824219 -45.367188 8.207031 -44.980469 7.742188 -44.363281 C 7.121094 -43.664062 6.660156 -42.347656 6.347656 -40.492188 C 6.117188 -39.5625 6.039062 -38.789062 6.039062 -38.167969 C 6.039062 -37.550781 6.117188 -37.007812 6.347656 -36.699219 Z M 6.347656 -36.699219 "/></g></g></g><g fill="#21ffb6" fill-opacity="0.502"><g transform="translate(290.05279, 148.011538)"><g><path d="M 36.078125 -66.582031 C 35.691406 -67.277344 35.226562 -67.820312 34.683594 -68.207031 C 34.066406 -68.519531 33.367188 -68.75 32.59375 -68.75 L 32.515625 -68.75 C 31.199219 -68.75 29.652344 -68.363281 27.949219 -67.433594 C 26.167969 -66.503906 24.308594 -65.109375 22.375 -63.332031 C 19.664062 -60.851562 16.722656 -56.980469 13.472656 -51.640625 C 10.21875 -46.21875 7.121094 -40.492188 4.335938 -34.296875 C 2.789062 -30.890625 1.472656 -27.5625 0.230469 -24.308594 C -1.007812 -20.902344 -2.089844 -17.730469 -2.863281 -14.789062 C -3.175781 -13.703125 -3.40625 -12.621094 -3.640625 -11.535156 C -3.949219 -10.375 -4.179688 -9.214844 -4.335938 -8.128906 C -4.800781 -6.039062 -5.109375 -4.179688 -5.265625 -2.476562 C -5.34375 -1.546875 -5.34375 -0.929688 -5.34375 -0.464844 C -5.34375 0 -5.34375 0.308594 -5.265625 0.464844 C -5.109375 0.695312 -4.953125 0.773438 -4.800781 0.773438 C -4.492188 0.773438 -4.179688 0.542969 -3.792969 0 C -3.175781 -0.773438 -2.398438 -2.246094 -1.546875 -4.335938 C -1.082031 -5.417969 -0.621094 -6.503906 -0.15625 -7.433594 C 0.308594 -8.363281 0.621094 -8.980469 0.929688 -9.289062 C 1.160156 -9.601562 2.246094 -9.832031 4.179688 -9.988281 C 6.039062 -10.140625 9.136719 -10.296875 13.472656 -10.375 C 15.871094 -10.375 18.117188 -10.453125 20.128906 -10.605469 C 22.140625 -10.683594 24 -10.839844 25.78125 -11.070312 C 28.878906 -11.382812 31.742188 -11.921875 34.296875 -12.695312 C 36.773438 -13.394531 39.253906 -14.398438 41.882812 -15.640625 C 42.738281 -16.027344 43.664062 -16.492188 44.59375 -17.03125 C 45.523438 -17.574219 46.453125 -18.117188 47.382812 -18.734375 C 49.085938 -19.820312 50.476562 -20.902344 51.640625 -21.910156 C 52.570312 -22.683594 53.109375 -23.226562 53.109375 -23.535156 C 53.109375 -23.613281 53.035156 -23.691406 53.035156 -23.691406 C 52.957031 -23.769531 52.414062 -23.613281 51.484375 -23.226562 C 50.402344 -22.839844 49.238281 -22.375 48 -21.832031 C 43.898438 -19.976562 39.640625 -18.503906 35.148438 -17.574219 C 30.660156 -16.644531 25.625 -16.027344 19.976562 -15.871094 C 15.484375 -15.640625 12.078125 -15.484375 9.910156 -15.484375 C 12.542969 -18.039062 14.632812 -19.976562 16.027344 -21.367188 C 18.96875 -24.234375 20.828125 -26.324219 21.601562 -27.640625 C 22.21875 -28.878906 22.066406 -29.960938 21.058594 -30.8125 C 20.4375 -31.355469 19.199219 -31.277344 17.496094 -30.582031 C 15.714844 -29.808594 13.625 -28.566406 11.226562 -26.710938 C 10.140625 -25.9375 9.289062 -25.394531 8.515625 -24.929688 C 7.742188 -24.464844 7.277344 -24.308594 7.277344 -24.464844 C 7.121094 -24.621094 7.433594 -25.550781 8.050781 -27.253906 C 8.671875 -28.957031 9.445312 -30.890625 10.375 -33.136719 L 13.859375 -41.265625 C 15.792969 -42.195312 17.265625 -42.96875 18.269531 -43.433594 C 20.128906 -44.363281 21.910156 -45.445312 23.691406 -46.761719 C 25.394531 -48.078125 27.019531 -49.472656 28.566406 -51.019531 C 31.355469 -53.808594 33.445312 -56.59375 34.996094 -59.535156 C 36.464844 -62.480469 36.851562 -64.800781 36.078125 -66.582031 Z M 22.761719 -57.292969 C 24.621094 -60 26.476562 -62.167969 28.335938 -63.71875 C 30.117188 -65.265625 31.585938 -66.039062 32.671875 -66.195312 L 32.828125 -66.195312 C 33.523438 -66.195312 33.988281 -65.808594 34.144531 -65.035156 C 34.144531 -64.878906 34.21875 -64.722656 34.21875 -64.570312 C 34.21875 -63.71875 33.832031 -62.480469 33.136719 -60.851562 C 32.128906 -58.609375 30.734375 -56.441406 28.957031 -54.425781 C 27.097656 -52.335938 24.929688 -50.402344 22.453125 -48.621094 C 20.4375 -47.148438 18.890625 -46.21875 17.960938 -45.753906 C 17.496094 -45.523438 17.109375 -45.445312 16.878906 -45.445312 C 16.566406 -45.445312 16.492188 -45.523438 16.492188 -45.832031 C 16.492188 -46.066406 16.800781 -46.917969 17.574219 -48.3125 C 18.195312 -49.625 19.046875 -51.097656 19.976562 -52.644531 C 20.4375 -53.496094 20.902344 -54.347656 21.445312 -55.125 C 21.910156 -55.898438 22.296875 -56.671875 22.761719 -57.292969 Z M 11.457031 -23.613281 L 13.472656 -25.007812 C 14.089844 -25.472656 14.632812 -25.78125 15.175781 -25.9375 L 15.40625 -25.9375 C 15.40625 -25.9375 15.484375 -25.859375 15.5625 -25.859375 L 15.5625 -25.78125 C 15.5625 -25.625 15.25 -25.160156 14.789062 -24.464844 C 14.167969 -23.691406 13.546875 -22.992188 12.773438 -22.453125 C 11.691406 -21.523438 10.375 -20.515625 8.671875 -19.277344 C 6.96875 -18.039062 5.574219 -17.03125 4.492188 -16.335938 C 4.644531 -16.878906 5.496094 -17.882812 6.890625 -19.433594 C 8.285156 -20.980469 9.832031 -22.375 11.457031 -23.613281 Z M 11.457031 -23.613281 "/></g></g></g><g fill="#21ffb6" fill-opacity="0.502"><g transform="translate(340.528445, 148.011538)"><g><path d="M 1.316406 -13.238281 C 2.476562 -12.15625 3.40625 -11.613281 4.101562 -11.457031 C 4.414062 -11.382812 4.878906 -11.382812 5.652344 -11.382812 C 6.582031 -11.382812 7.898438 -11.382812 9.601562 -11.535156 C 11.457031 -11.613281 13.859375 -12 16.957031 -12.695312 C 20.050781 -13.316406 23.226562 -14.167969 26.554688 -15.097656 C 29.730469 -15.949219 32.828125 -16.878906 35.921875 -17.882812 C 38.867188 -18.8125 41.34375 -19.742188 43.199219 -20.59375 C 44.128906 -20.980469 44.902344 -21.367188 45.523438 -21.753906 C 46.144531 -22.066406 46.453125 -22.375 46.453125 -22.605469 C 46.453125 -23.070312 44.828125 -23.148438 41.574219 -22.683594 C 38.324219 -22.21875 32.671875 -21.136719 24.699219 -19.585938 C 20.828125 -18.8125 17.34375 -18.195312 14.089844 -17.652344 C 10.761719 -17.109375 8.75 -16.878906 7.972656 -16.878906 C 5.652344 -16.878906 4.335938 -17.34375 3.949219 -18.269531 C 3.484375 -19.199219 3.714844 -21.445312 4.492188 -25.007812 C 4.800781 -26.710938 5.109375 -28.179688 5.417969 -29.421875 C 5.652344 -30.660156 5.804688 -31.277344 5.804688 -31.355469 C 5.804688 -31.433594 5.730469 -31.511719 5.574219 -31.664062 C 5.417969 -31.742188 5.1875 -31.820312 5.03125 -31.976562 L 4.878906 -31.976562 C 4.414062 -31.898438 3.871094 -31.277344 3.097656 -30.039062 C 2.246094 -28.566406 1.472656 -26.941406 0.695312 -25.160156 C 0.230469 -23.921875 -0.15625 -22.761719 -0.464844 -21.601562 C -0.851562 -20.4375 -1.007812 -19.511719 -1.007812 -18.734375 L -1.007812 -18.269531 C -1.007812 -17.03125 -0.929688 -16.105469 -0.695312 -15.5625 C -0.464844 -14.941406 0.230469 -14.167969 1.316406 -13.238281 Z M 6.347656 -36.699219 C 6.503906 -36.386719 6.660156 -36.078125 6.96875 -35.921875 C 7.199219 -35.691406 7.433594 -35.613281 7.585938 -35.613281 C 8.050781 -35.613281 8.824219 -36.308594 10.066406 -37.859375 C 11.226562 -39.40625 11.921875 -40.644531 12.15625 -41.574219 C 12.234375 -41.882812 12.308594 -42.195312 12.308594 -42.503906 C 12.308594 -43.511719 11.84375 -44.285156 10.917969 -44.902344 C 10.375 -45.214844 9.910156 -45.367188 9.523438 -45.367188 C 8.824219 -45.367188 8.207031 -44.980469 7.742188 -44.363281 C 7.121094 -43.664062 6.660156 -42.347656 6.347656 -40.492188 C 6.117188 -39.5625 6.039062 -38.789062 6.039062 -38.167969 C 6.039062 -37.550781 6.117188 -37.007812 6.347656 -36.699219 Z M 6.347656 -36.699219 "/></g></g></g><g fill="#000000" fill-opacity="1"><g transform="translate(178.189887, 145.683241)"><g><path d="M 30.582031 3.640625 C 31.125 4.335938 31.742188 4.800781 32.363281 4.953125 C 32.980469 5.1875 33.832031 5.265625 34.996094 5.109375 C 35.691406 5.03125 36.386719 4.878906 37.085938 4.644531 C 37.703125 4.492188 38.324219 4.101562 39.097656 3.5625 C 40.414062 2.710938 41.882812 1.238281 43.589844 -0.851562 C 45.214844 -2.941406 47.304688 -5.960938 49.859375 -9.910156 C 51.871094 -13.085938 54.347656 -17.109375 57.214844 -21.910156 C 60.078125 -26.632812 63.484375 -32.363281 67.355469 -39.019531 C 70.296875 -44.050781 72.851562 -48.386719 75.019531 -52.105469 C 77.109375 -55.742188 78.890625 -58.839844 80.285156 -61.394531 C 82.917969 -66.117188 84.464844 -69.214844 85.085938 -70.761719 C 85.242188 -71.382812 85.394531 -71.925781 85.394531 -72.3125 C 85.394531 -72.699219 85.242188 -72.929688 84.929688 -72.929688 L 84.851562 -72.929688 C 83.925781 -72.777344 82.144531 -70.996094 79.355469 -67.433594 C 76.570312 -63.871094 73.242188 -59.070312 69.371094 -53.035156 C 67.203125 -49.78125 64.878906 -46.21875 62.554688 -42.347656 C 60.078125 -38.476562 57.601562 -34.375 55.125 -30.039062 C 48.929688 -19.664062 44.207031 -12.15625 41.03125 -7.585938 C 37.78125 -3.019531 35.847656 -1.082031 35.070312 -1.703125 C 34.296875 -2.246094 34.21875 -4.414062 34.761719 -8.128906 C 35.226562 -11.84375 36.464844 -18.425781 38.554688 -27.714844 C 39.175781 -30.660156 39.71875 -33.214844 40.179688 -35.457031 C 40.570312 -37.625 40.878906 -39.5625 41.1875 -41.265625 C 41.652344 -44.363281 41.730469 -46.609375 41.574219 -48.078125 C 41.34375 -49.472656 40.878906 -50.476562 40.105469 -51.175781 C 37.78125 -52.957031 34.839844 -51.71875 31.277344 -47.382812 C 27.640625 -42.96875 22.605469 -34.683594 16.257812 -22.453125 C 15.175781 -20.4375 14.324219 -18.660156 13.546875 -17.1875 C 12.773438 -15.714844 12.078125 -14.476562 11.613281 -13.472656 C 9.910156 -10.296875 8.980469 -8.59375 8.824219 -8.4375 C 8.59375 -8.285156 8.363281 -8.285156 8.128906 -8.515625 C 7.820312 -8.671875 7.898438 -9.910156 8.363281 -12.15625 C 8.824219 -14.324219 9.445312 -17.109375 10.296875 -20.4375 C 10.683594 -22.140625 11.148438 -24 11.769531 -26.011719 C 12.234375 -27.949219 12.851562 -29.960938 13.472656 -31.976562 C 14.554688 -35.847656 15.714844 -39.5625 16.957031 -43.199219 C 18.117188 -46.839844 19.199219 -49.859375 20.207031 -52.257812 C 21.445312 -55.277344 22.140625 -57.292969 22.375 -58.296875 C 22.53125 -59.226562 22.296875 -59.691406 21.679688 -59.691406 C 20.902344 -59.535156 19.664062 -57.832031 17.960938 -54.582031 C 16.257812 -51.253906 14.398438 -47.226562 12.542969 -42.425781 C 11.457031 -39.792969 10.453125 -37.007812 9.523438 -34.21875 C 8.4375 -31.355469 7.511719 -28.492188 6.734375 -25.703125 C 3.328125 -14.398438 1.472656 -6.269531 1.316406 -1.160156 C 1.238281 -0.695312 1.238281 -0.308594 1.238281 0 C 1.238281 4.101562 2.398438 6.117188 4.722656 6.117188 L 5.1875 6.117188 C 6.117188 6.039062 7.046875 5.574219 7.972656 4.644531 C 8.824219 3.871094 10.066406 2.089844 11.613281 -0.542969 C 12.386719 -1.933594 13.394531 -3.640625 14.476562 -5.730469 C 15.5625 -7.742188 16.800781 -10.21875 18.347656 -13.160156 C 24.078125 -24.15625 28.257812 -31.898438 30.890625 -36.386719 C 33.523438 -40.800781 35.070312 -42.8125 35.691406 -42.347656 C 35.769531 -42.273438 35.535156 -40.570312 34.917969 -37.316406 C 34.21875 -33.988281 33.367188 -30.039062 32.4375 -25.550781 C 30.347656 -16.257812 29.1875 -9.523438 28.957031 -5.265625 C 28.644531 -0.929688 29.1875 2.011719 30.582031 3.640625 Z M 30.582031 3.640625 "/></g></g></g><g fill="#000000" fill-opacity="1"><g transform="translate(244.768204, 145.683241)"><g><path d="M 1.316406 -13.238281 C 2.476562 -12.15625 3.40625 -11.613281 4.101562 -11.457031 C 4.414062 -11.382812 4.878906 -11.382812 5.652344 -11.382812 C 6.582031 -11.382812 7.898438 -11.382812 9.601562 -11.535156 C 11.457031 -11.613281 13.859375 -12 16.957031 -12.695312 C 20.050781 -13.316406 23.226562 -14.167969 26.554688 -15.097656 C 29.730469 -15.949219 32.828125 -16.878906 35.921875 -17.882812 C 38.867188 -18.8125 41.34375 -19.742188 43.199219 -20.59375 C 44.128906 -20.980469 44.902344 -21.367188 45.523438 -21.753906 C 46.144531 -22.066406 46.453125 -22.375 46.453125 -22.605469 C 46.453125 -23.070312 44.828125 -23.148438 41.574219 -22.683594 C 38.324219 -22.21875 32.671875 -21.136719 24.699219 -19.585938 C 20.828125 -18.8125 17.34375 -18.195312 14.089844 -17.652344 C 10.761719 -17.109375 8.75 -16.878906 7.972656 -16.878906 C 5.652344 -16.878906 4.335938 -17.34375 3.949219 -18.269531 C 3.484375 -19.199219 3.714844 -21.445312 4.492188 -25.007812 C 4.800781 -26.710938 5.109375 -28.179688 5.417969 -29.421875 C 5.652344 -30.660156 5.804688 -31.277344 5.804688 -31.355469 C 5.804688 -31.433594 5.730469 -31.511719 5.574219 -31.664062 C 5.417969 -31.742188 5.1875 -31.820312 5.03125 -31.976562 L 4.878906 -31.976562 C 4.414062 -31.898438 3.871094 -31.277344 3.097656 -30.039062 C 2.246094 -28.566406 1.472656 -26.941406 0.695312 -25.160156 C 0.230469 -23.921875 -0.15625 -22.761719 -0.464844 -21.601562 C -0.851562 -20.4375 -1.007812 -19.511719 -1.007812 -18.734375 L -1.007812 -18.269531 C -1.007812 -17.03125 -0.929688 -16.105469 -0.695312 -15.5625 C -0.464844 -14.941406 0.230469 -14.167969 1.316406 -13.238281 Z M 6.347656 -36.699219 C 6.503906 -36.386719 6.660156 -36.078125 6.96875 -35.921875 C 7.199219 -35.691406 7.433594 -35.613281 7.585938 -35.613281 C 8.050781 -35.613281 8.824219 -36.308594 10.066406 -37.859375 C 11.226562 -39.40625 11.921875 -40.644531 12.15625 -41.574219 C 12.234375 -41.882812 12.308594 -42.195312 12.308594 -42.503906 C 12.308594 -43.511719 11.84375 -44.285156 10.917969 -44.902344 C 10.375 -45.214844 9.910156 -45.367188 9.523438 -45.367188 C 8.824219 -45.367188 8.207031 -44.980469 7.742188 -44.363281 C 7.121094 -43.664062 6.660156 -42.347656 6.347656 -40.492188 C 6.117188 -39.5625 6.039062 -38.789062 6.039062 -38.167969 C 6.039062 -37.550781 6.117188 -37.007812 6.347656 -36.699219 Z M 6.347656 -36.699219 "/></g></g></g><g fill="#000000" fill-opacity="1"><g transform="translate(289.20536, 145.683241)"><g><path d="M 36.078125 -66.582031 C 35.691406 -67.277344 35.226562 -67.820312 34.683594 -68.207031 C 34.066406 -68.519531 33.367188 -68.75 32.59375 -68.75 L 32.515625 -68.75 C 31.199219 -68.75 29.652344 -68.363281 27.949219 -67.433594 C 26.167969 -66.503906 24.308594 -65.109375 22.375 -63.332031 C 19.664062 -60.851562 16.722656 -56.980469 13.472656 -51.640625 C 10.21875 -46.21875 7.121094 -40.492188 4.335938 -34.296875 C 2.789062 -30.890625 1.472656 -27.5625 0.230469 -24.308594 C -1.007812 -20.902344 -2.089844 -17.730469 -2.863281 -14.789062 C -3.175781 -13.703125 -3.40625 -12.621094 -3.640625 -11.535156 C -3.949219 -10.375 -4.179688 -9.214844 -4.335938 -8.128906 C -4.800781 -6.039062 -5.109375 -4.179688 -5.265625 -2.476562 C -5.34375 -1.546875 -5.34375 -0.929688 -5.34375 -0.464844 C -5.34375 0 -5.34375 0.308594 -5.265625 0.464844 C -5.109375 0.695312 -4.953125 0.773438 -4.800781 0.773438 C -4.492188 0.773438 -4.179688 0.542969 -3.792969 0 C -3.175781 -0.773438 -2.398438 -2.246094 -1.546875 -4.335938 C -1.082031 -5.417969 -0.621094 -6.503906 -0.15625 -7.433594 C 0.308594 -8.363281 0.621094 -8.980469 0.929688 -9.289062 C 1.160156 -9.601562 2.246094 -9.832031 4.179688 -9.988281 C 6.039062 -10.140625 9.136719 -10.296875 13.472656 -10.375 C 15.871094 -10.375 18.117188 -10.453125 20.128906 -10.605469 C 22.140625 -10.683594 24 -10.839844 25.78125 -11.070312 C 28.878906 -11.382812 31.742188 -11.921875 34.296875 -12.695312 C 36.773438 -13.394531 39.253906 -14.398438 41.882812 -15.640625 C 42.738281 -16.027344 43.664062 -16.492188 44.59375 -17.03125 C 45.523438 -17.574219 46.453125 -18.117188 47.382812 -18.734375 C 49.085938 -19.820312 50.476562 -20.902344 51.640625 -21.910156 C 52.570312 -22.683594 53.109375 -23.226562 53.109375 -23.535156 C 53.109375 -23.613281 53.035156 -23.691406 53.035156 -23.691406 C 52.957031 -23.769531 52.414062 -23.613281 51.484375 -23.226562 C 50.402344 -22.839844 49.238281 -22.375 48 -21.832031 C 43.898438 -19.976562 39.640625 -18.503906 35.148438 -17.574219 C 30.660156 -16.644531 25.625 -16.027344 19.976562 -15.871094 C 15.484375 -15.640625 12.078125 -15.484375 9.910156 -15.484375 C 12.542969 -18.039062 14.632812 -19.976562 16.027344 -21.367188 C 18.96875 -24.234375 20.828125 -26.324219 21.601562 -27.640625 C 22.21875 -28.878906 22.066406 -29.960938 21.058594 -30.8125 C 20.4375 -31.355469 19.199219 -31.277344 17.496094 -30.582031 C 15.714844 -29.808594 13.625 -28.566406 11.226562 -26.710938 C 10.140625 -25.9375 9.289062 -25.394531 8.515625 -24.929688 C 7.742188 -24.464844 7.277344 -24.308594 7.277344 -24.464844 C 7.121094 -24.621094 7.433594 -25.550781 8.050781 -27.253906 C 8.671875 -28.957031 9.445312 -30.890625 10.375 -33.136719 L 13.859375 -41.265625 C 15.792969 -42.195312 17.265625 -42.96875 18.269531 -43.433594 C 20.128906 -44.363281 21.910156 -45.445312 23.691406 -46.761719 C 25.394531 -48.078125 27.019531 -49.472656 28.566406 -51.019531 C 31.355469 -53.808594 33.445312 -56.59375 34.996094 -59.535156 C 36.464844 -62.480469 36.851562 -64.800781 36.078125 -66.582031 Z M 22.761719 -57.292969 C 24.621094 -60 26.476562 -62.167969 28.335938 -63.71875 C 30.117188 -65.265625 31.585938 -66.039062 32.671875 -66.195312 L 32.828125 -66.195312 C 33.523438 -66.195312 33.988281 -65.808594 34.144531 -65.035156 C 34.144531 -64.878906 34.21875 -64.722656 34.21875 -64.570312 C 34.21875 -63.71875 33.832031 -62.480469 33.136719 -60.851562 C 32.128906 -58.609375 30.734375 -56.441406 28.957031 -54.425781 C 27.097656 -52.335938 24.929688 -50.402344 22.453125 -48.621094 C 20.4375 -47.148438 18.890625 -46.21875 17.960938 -45.753906 C 17.496094 -45.523438 17.109375 -45.445312 16.878906 -45.445312 C 16.566406 -45.445312 16.492188 -45.523438 16.492188 -45.832031 C 16.492188 -46.066406 16.800781 -46.917969 17.574219 -48.3125 C 18.195312 -49.625 19.046875 -51.097656 19.976562 -52.644531 C 20.4375 -53.496094 20.902344 -54.347656 21.445312 -55.125 C 21.910156 -55.898438 22.296875 -56.671875 22.761719 -57.292969 Z M 11.457031 -23.613281 L 13.472656 -25.007812 C 14.089844 -25.472656 14.632812 -25.78125 15.175781 -25.9375 L 15.40625 -25.9375 C 15.40625 -25.9375 15.484375 -25.859375 15.5625 -25.859375 L 15.5625 -25.78125 C 15.5625 -25.625 15.25 -25.160156 14.789062 -24.464844 C 14.167969 -23.691406 13.546875 -22.992188 12.773438 -22.453125 C 11.691406 -21.523438 10.375 -20.515625 8.671875 -19.277344 C 6.96875 -18.039062 5.574219 -17.03125 4.492188 -16.335938 C 4.644531 -16.878906 5.496094 -17.882812 6.890625 -19.433594 C 8.285156 -20.980469 9.832031 -22.375 11.457031 -23.613281 Z M 11.457031 -23.613281 "/></g></g></g><g fill="#000000" fill-opacity="1"><g transform="translate(339.681015, 145.683241)"><g><path d="M 1.316406 -13.238281 C 2.476562 -12.15625 3.40625 -11.613281 4.101562 -11.457031 C 4.414062 -11.382812 4.878906 -11.382812 5.652344 -11.382812 C 6.582031 -11.382812 7.898438 -11.382812 9.601562 -11.535156 C 11.457031 -11.613281 13.859375 -12 16.957031 -12.695312 C 20.050781 -13.316406 23.226562 -14.167969 26.554688 -15.097656 C 29.730469 -15.949219 32.828125 -16.878906 35.921875 -17.882812 C 38.867188 -18.8125 41.34375 -19.742188 43.199219 -20.59375 C 44.128906 -20.980469 44.902344 -21.367188 45.523438 -21.753906 C 46.144531 -22.066406 46.453125 -22.375 46.453125 -22.605469 C 46.453125 -23.070312 44.828125 -23.148438 41.574219 -22.683594 C 38.324219 -22.21875 32.671875 -21.136719 24.699219 -19.585938 C 20.828125 -18.8125 17.34375 -18.195312 14.089844 -17.652344 C 10.761719 -17.109375 8.75 -16.878906 7.972656 -16.878906 C 5.652344 -16.878906 4.335938 -17.34375 3.949219 -18.269531 C 3.484375 -19.199219 3.714844 -21.445312 4.492188 -25.007812 C 4.800781 -26.710938 5.109375 -28.179688 5.417969 -29.421875 C 5.652344 -30.660156 5.804688 -31.277344 5.804688 -31.355469 C 5.804688 -31.433594 5.730469 -31.511719 5.574219 -31.664062 C 5.417969 -31.742188 5.1875 -31.820312 5.03125 -31.976562 L 4.878906 -31.976562 C 4.414062 -31.898438 3.871094 -31.277344 3.097656 -30.039062 C 2.246094 -28.566406 1.472656 -26.941406 0.695312 -25.160156 C 0.230469 -23.921875 -0.15625 -22.761719 -0.464844 -21.601562 C -0.851562 -20.4375 -1.007812 -19.511719 -1.007812 -18.734375 L -1.007812 -18.269531 C -1.007812 -17.03125 -0.929688 -16.105469 -0.695312 -15.5625 C -0.464844 -14.941406 0.230469 -14.167969 1.316406 -13.238281 Z M 6.347656 -36.699219 C 6.503906 -36.386719 6.660156 -36.078125 6.96875 -35.921875 C 7.199219 -35.691406 7.433594 -35.613281 7.585938 -35.613281 C 8.050781 -35.613281 8.824219 -36.308594 10.066406 -37.859375 C 11.226562 -39.40625 11.921875 -40.644531 12.15625 -41.574219 C 12.234375 -41.882812 12.308594 -42.195312 12.308594 -42.503906 C 12.308594 -43.511719 11.84375 -44.285156 10.917969 -44.902344 C 10.375 -45.214844 9.910156 -45.367188 9.523438 -45.367188 C 8.824219 -45.367188 8.207031 -44.980469 7.742188 -44.363281 C 7.121094 -43.664062 6.660156 -42.347656 6.347656 -40.492188 C 6.117188 -39.5625 6.039062 -38.789062 6.039062 -38.167969 C 6.039062 -37.550781 6.117188 -37.007812 6.347656 -36.699219 Z M 6.347656 -36.699219 "/></g></g></g></svg>